/* XPM */
static char *result[] = {
/* columns rows colors chars-per-pixel */
"64 64 247 2 ",
"   c #0B0A0A",
".  c #0F0E10",
"X  c #0C1215",
"o  c #151618",
"O  c #1C1C1C",
"+  c #231B1A",
"@  c #1E201E",
"#  c #23221E",
"$  c #0C1626",
"%  c #151B24",
"&  c #1B1E23",
"*  c #151B29",
"=  c #141C2B",
"-  c #151D35",
";  c #221E22",
":  c #1D2324",
">  c #1C232C",
",  c #1C2333",
"<  c #192539",
"1  c #1B243B",
"2  c #172939",
"3  c #232424",
"4  c #272826",
"5  c #24252B",
"6  c #252A2B",
"7  c #2A2B2C",
"8  c #31312C",
"9  c #232634",
"0  c #242A33",
"q  c #2B2D34",
"w  c #242B3C",
"e  c #2A2E3A",
"r  c #293336",
"t  c #2B333C",
"y  c #333435",
"u  c #383A39",
"i  c #453E3B",
"p  c #36413D",
"a  c #41443D",
"s  c #1B2846",
"d  c #1A304E",
"f  c #1A2D55",
"g  c #222C43",
"h  c #252E49",
"j  c #253343",
"k  c #2B3344",
"l  c #2A3A46",
"z  c #24344C",
"x  c #2A354C",
"c  c #2C3A4D",
"v  c #343B43",
"b  c #373B47",
"n  c #333B4B",
"m  c #233553",
"M  c #273755",
"N  c #2C3B53",
"B  c #243B5C",
"V  c #2B3D5B",
"C  c #323D54",
"Z  c #3A3D56",
"A  c #333E5A",
"S  c #183A68",
"D  c #253B63",
"F  c #2B3D62",
"G  c #443C47",
"H  c #394345",
"J  c #3C434C",
"K  c #2C415C",
"L  c #29465D",
"P  c #344254",
"I  c #3B4453",
"U  c #364A51",
"Y  c #3B4A54",
"T  c #34435B",
"R  c #3B455B",
"E  c #3B4A5D",
"W  c #1C4A76",
"Q  c #2D4364",
"!  c #2A4667",
"~  c #324563",
"^  c #344A65",
"/  c #3B4C63",
"(  c #344568",
")  c #344B6B",
"_  c #3A4D6A",
"`  c #3D5265",
"'  c #3C526D",
"]  c #38566C",
"[  c #2C4B73",
"{  c #344D71",
"}  c #2B5378",
"|  c #355274",
" . c #3C5473",
".. c #385879",
"X. c #3D5B7B",
"o. c #3E6478",
"O. c #434543",
"+. c #474748",
"@. c #444B4C",
"#. c #4B4C4C",
"$. c #524B4C",
"%. c #4B514C",
"&. c #57564B",
"*. c #444B52",
"=. c #454A58",
"-. c #4D5354",
";. c #44525B",
":. c #4A5659",
">. c #4B545C",
",. c #535553",
"<. c #575955",
"1. c #52555B",
"2. c #545B5C",
"3. c #5B5C5C",
"4. c #635659",
"5. c #51615D",
"6. c #5C625C",
"7. c #64635C",
"8. c #434D63",
"9. c #445463",
"0. c #4B5462",
"q. c #4C5A64",
"w. c #43546B",
"e. c #47586A",
"r. c #4C5C6C",
"t. c #535B63",
"y. c #565C67",
"u. c #465A74",
"i. c #425B7B",
"p. c #545A70",
"a. c #6A5869",
"s. c #5B6364",
"d. c #57656A",
"f. c #5B646C",
"g. c #466278",
"h. c #4B647C",
"j. c #5A6F75",
"k. c #54667A",
"l. c #586878",
"z. c #636563",
"x. c #676A68",
"c. c #75696D",
"v. c #69726B",
"b. c #76756B",
"n. c #636C73",
"m. c #656C77",
"M. c #6C7374",
"N. c #67777B",
"B. c #6B747B",
"V. c #767977",
"C. c #73767B",
"Z. c #8D5C72",
"A. c #8D7178",
"S. c #71816C",
"D. c #7C827C",
"F. c #85857B",
"G. c #2C5586",
"H. c #355B85",
"J. c #3C5E83",
"K. c #3C6284",
"L. c #37658A",
"P. c #2D6690",
"I. c #3C6B93",
"U. c #386A97",
"Y. c #3C7299",
"T. c #3A77A7",
"R. c #415E83",
"E. c #436383",
"W. c #476888",
"Q. c #576B84",
"!. c #4F7085",
"~. c #597389",
"^. c #456C93",
"/. c #467499",
"(. c #567795",
"). c #666D83",
"_. c #697785",
"`. c #757D86",
"'. c #7A7589",
"]. c #667C95",
"[. c #477BA5",
"{. c #567CA7",
"}. c #827C82",
"|. c #3B85AF",
" X c #6B8188",
".X c #778486",
"XX c #7C8483",
"oX c #74838B",
"OX c #7C8A8B",
"+X c #6C8697",
"@X c #748592",
"#X c #778997",
"$X c #7D8C93",
"%X c #799299",
"&X c #4885AB",
"*X c #5786A8",
"=X c #5991AB",
"-X c #4C90B6",
";X c #5697BC",
":X c #6F94AF",
">X c #74A9BB",
",X c #36ADCD",
"<X c #5D9CC3",
"1X c #779FC8",
"2X c #57A5C7",
"3X c #52B1CF",
"4X c #6BACCD",
"5X c #75C6DA",
"6X c #63D4EB",
"7X c #838A84",
"8X c #878888",
"9X c #848B8B",
"0X c #8B928A",
"qX c #959589",
"wX c #838D92",
"eX c #858C9A",
"rX c #928993",
"tX c #889497",
"yX c #969A96",
"uX c #A59994",
"iX c #8EA09A",
"pX c #9CA29A",
"aX c #A6A69A",
"sX c #B2AB9F",
"dX c #838CA1",
"fX c #889AA4",
"gX c #979CA4",
"hX c #A19CA3",
"jX c #99A5A6",
"kX c #90A9B2",
"lX c #9CACB4",
"zX c #A5AAA6",
"xX c #ACAFAB",
"cX c #B6B6AA",
"vX c #A8B7B8",
"bX c #B5BAB5",
"nX c #BBC1BD",
"mX c #C5CABB",
"MX c #8CB3C8",
"NX c #A5B7CB",
"BX c #BCC5C5",
"VX c #B3C8D3",
"CX c #91D4EA",
"ZX c #AAECF4",
"AX c #CDD4CF",
"SX c #DAE2DD",
"DX c #EAEAEA",
/* pixels */
"xXyXsX3 &.8XcXAXbXmXzXaXAX5 v 7 pXr . ,.zXcXo o ;.pXpX7.F.A.a &.b.b.A.o 8 &.# o u z.x.7.&.&.7.7.v.v.v.v.v.z.s.6.,.O.. o o a a   ",
"B.3 O + 8Xz.8XcX$.+ 7.<.AXcX  4 yX6 % aXzXaX# 8 .XpXqX7.b.b.A.S.7.6.F.. # 7.8 3 i v.&.+.i 8 a 4 # 4 # : a -.,.%.a 6.O o o %.x.  ",
"V.; o + uXx.qXcXi O F.a AX3 . . pXbXAXyXpXaXy p r %.F.aXqXb.c.+ 6.0XqX+ a x.a 4 yX<.& O.8 x.&.%.&.%.%.@.@.+.+.a u 8 u 8 &.&.&.p ",
"c.cXcXsXsXc.b.bXjXD.cXcXcXxXcXzXrX2.xXbXbXsXcXcXsXsXaXaXuXaXaXaXsXaX+ aXF.F.8 i tX0X0XqXF.F.A.F.F.F.V.V.b.b.b.v.b.7.7.<.&.&.&.a ",
"yX8Xx.%.8 + G 7 8 4 4 4 i $.3.z.M.b.V.9XyXzXzXzXpXaXyX0X9X0X9X0XtXyX0X:.&.7.V.yX0X7XrX0X0X7X7XXXb.V.M.V.b.x.7.,.#.O.u 4 # .     ",
"D.yXpX0XD.zX0X0XiXaXD.p z.tXjXwXM.y.-.H y u 2.z.6.@.a p a a p u O.,.:.-.a $.O.u a O.H u q 3 3 : @ : 4 6 3 3 3 @ # O O 8 a %.%.a ",
"nXl VXSX0XSXD.F.iXpXzXSXiXAXo BXAXbXxXAXBXbXnXbXbXbXxXxXzXjXjXjXjXzXjXpXyXyXyXyXqXtX0X0X7XXX7XXXD.D.V.v.v.v.v.v.x.s.n.0XM.b.5 rX",
"fX@XxXiXAXSX7XV.F.F.6.AXNXAXwXfXOXyXXXV.wXwXtXtX(.+X~.~.].~.!.(.i.W.W.h.r._ 8.T / L L N N l n k t q , r 0 0 > r > r 6 6 D.M.F.b.",
"#X:X%XSXSXSXx.F.qXaXnXmXAXD.S.:X XyXD.j.OX7X@X$X*X{.=X|./.^.^.^.I.^.^.^.AX . . .~ A y.I C x qX4.+.I I v w r J `.6 n.q q > 3 A.M.",
"kX!.kXf.SXSXV.F.qXaXmXaX# %XDX>X_.N._.M.OX9XoX@X{.*X*X^././.U.I.^.^.K./.u.X.i.i.V T M B V h k j h N z s 1 , t >.1.s.*.9 0 J V.V.",
"#XMX+Xm.vXD.pXqXqXcXa nXOX#XZXkX:XwXB.#XOX9XOXoXu.{.L.K.J.J.W.H.i.R. .T m B c N N w > r 9 e > x e > 0 t t.t.J 0 v J .Xb > > +.&.",
"%X%X%X].vXbXu &.v.&.aXnX$XOXN. XkXiXm.#XC.XXoX.X].].(.K.L.L.H.I.L.o.] E H P c j k g e r k t e e 1 e e *.b w 1.>.gXJ b q > > %.&.",
"+X+X:X XBXvX6.F.3.yXaXbX$X.XB.@X%XlXN.;.`.`.oXoXxX:XDX[.[.P.[.{./.U.Y.^.W.MX^ _ T K N T K A.a.b s x - e b p.X `.#X*.t.e : 0 ,.6.",
"+X+X%X+XBXnXyXyXaXaXb.bXOX`.B.N.B.t n Y +X8X`.OXfXfX:X:X].+XgXeXk.k.h.k.p.f.f.B.m.n.t.1.<.A.Z.2.,.,.$.t q 1 fX`.g -.+.#.% t ,.x.",
"+X#X+X+XnXnX0X0Xb.0Xv.bXOX.X.XM.M.v.C..X@X8X`.].[.<X<XMX<X[.T.p.| ....W.h. .i.^ h.V ! V T Z Z N c N @.P >.s c g b *.-.$ , k 3.x.",
"%X+X+X#XbXnX7X7XbX0X3.bXOX.X XD.N..X`.oXoX`.].'.[.<X1X:X:XMXkXB.eXoX`.).'.rXgXgXtXjXgXgXhXrXc.a.c.a.z.x.I '.g n Z +.H = = n <.z.",
" XN.3 y vXvX9X7X6.0X,.bXOXC.V.N.M.N.9X XN. X+X@X<XCXNX<XT.U./.~.i.!.' h.DX( ^ _ C A Z Z C c z z z N z P H k v 0.; * * - < r <.z.",
" XXXzXbXBXbX0XXXrXqX7 bXxXy p y u tX5 oX_.@XoX+X2X1XMX<XT.[.*XW.E.u. .e. .) ^ K A A c.a.T N z z z < N c w >.1.y 7., 0 < = , ,.z.",
"tX.XOX.XBXvXx.O z.y 3 bXtXwXtXOXtXoX@XoX X@X_.@X<X<X-X[.U.^.W.(.J.i. .' ^ ! L ~ ( l.SXa.A N c z z x j s z z I 9 4.w v , - = ,.x.",
"N.d.6 s.bXvXV.t <.7.: bXtXq Y tXxX9XD.N.s.U ` ] [.;X*XY.Y.Y.W.E.g.i.| _ ! ~ Q ^ m.Z $.O.b t J =.b @.H -.-.b J o i > u . . 3 4 . ",
"n.t.@.V.vXvXV.6 +.$.5 xXwXt.>.`.U %.p kXp U p ] [.*XY.U.U./.(.W.J.i...W.R. ... .Q./ z K B m N M s g s , , w H - V.s u s % : 3 + ",
"1.l.y.m.vXlX8X7 u $.4 zX`.t.q t.0  Xl OXj ` o.L Y.U.[.W.I.^.W.~.u.(.i.(.u.].`.R k c n B ) m M z g s g 1 w 1 v w }.< q % $ o 3.x.",
"B.).C.p.vXlXgX7 u #.# zX`.t >.d.H j.U D.d S.S.L U.U.[.W.W.!.R.W.u.!.u.E.E.W.).w.^ Q k M B B z z T z w w j ;.l e }.g q < - & 2.6.",
"j.~._.m.lXjXgX8X7.x.6.jXn.n.q.;.:.U p U o.U ;.L ^./.`.E.u.Q.u.u.` / / / 8.C y.n c n Y q.T N @.Y >.n g C g z C g .Xk 5 s < : 3.6.",
"s.@XC.N.lXlXF.v.vXpXD.zXoX XS.N. X@X+X=X$ *X X(.{.Y..XW...i.W.W._ E.X.W.E...` ~ { [ | ..[ ! ~.'.p.m.z c c z E w ).g 9 g - 9 3.7.",
"U %X_.OXMXlXv.F.S.7.5.zXoXoX$ ;..X+X,X>X1 Q.g.x.l.9.wXg.X.i.R.~.p.).u.].].NXk.] X.o.} L.K.H.K.k.i.Q V M m z / j ).h e s f * 1.7.",
"j eXN.`.NXvXz.xXzXD.s.jXvXN.d q._.3X6X3X2XQ.r.p.9.9.r.+X..X.Q.).u.W.| _ [.Q.J. ./.L.T.P.U.Y.Y.K.{ ! ! B m d e.c _.M e s s , 1.z.",
"t dX).~.vXlX7Xy 6 6 4 jX_.Q.K 9.j.,X|.3X2XQ.l.p.e.e.E.{ (.X.p.'.r.u.i.{ J.R...W.:X*X;X|.|.Y.;XL.H.R.} ! B B  .^ #XB x s s , 3.4.",
"E #X~.~.nXlX0Xt r %.6 jX_.j.] Y r.t j.>X;XW.AXu.;.q.M.m._.).p.u.B.u.i.| ..X.E.^.*X/.T.Y.P.P.Y.I.U.} } } P.W o.) NX( A f s - :.3.",
"n #X~._.vXlXB.6 7 5.4 jXN.Q.e.J E ` +X;X2X[.f.l.r.g.l.P E dX}.p.p.e._  .X.W.X.(.I.^.I.^.I.H.I.U./.H.G.U.Y.;XY.L.].D 8.S f - >.<.",
"l @Xl.`.nXlXN.0 r @.: jXN.Q.9.l :.q.*X3X3X|.*Xl.)._.k.l.Q.Q.).Q.u._ _ i._.W.R.E.(.J.J.L.L.L.I.;XI.U.*XY.-X3X4X&X].G.R.P.ZX- 1.,.",
"J @X~.Q.lXkXr u %.6 O jXl.k.l.u H g.;X6X6X2X(.l.m.kXn f.y.r.u.u.u. .w.R.~.i...i.W...{ W.K.^./.Y./.L./.[.3X3XZX1X{.:XQ.P.[ s <.,.",
"Y @XW.Q.lXjXn.q 7 v o pXk.k.E t l ~.6XZXZX2X(.k._._.A w.u.( u.{ { _  . .E.g.J. . .^ ..R.I./././././.I.&X<XCX2X*X#XG.Q.U.S h 4.1.",
"Y `.(.h.gXgXz.3 4 @.: tXk.k.;.H l +X3X6X6X;X{.m.B.).R w.w.u.i.u. ._ X.E...L.!.| ! ) { | K.CXY.&X/.K.Y.&X5X<X{.[.NXU.p.R.M x 4.1.",
";.@Xh.=.tXjXs.4 5 b o tXQ.k.;.J l ].&X3X3X{.q.Q.0.r.u.Z h w.X. .u.X.E.K...K.J. ._ ~ P { K.L.L.H.L.o.Y.5X<X5X[.T.ZXU.[ f s h 1.4.",
"/ BX!./ gXjXM.y ; #.% tXl.Q.(.P j j.].{.2X/.m.p.i.W.i.b g Z u.i.X.J.^.^.E.o.X.i._ cX_ .. ...L.} L.&X;X2X&X[.H.U.1X{.( D s 9 t.y.",
"` l.h.;.jXiXtXS.yXV.2.tX~.k.4XU j l.~.*X<XE.' K.^.I.W.8./ N _ p.o...|.T.^.X.X.' ~ A n ^ | K.H.H.K.P.;X|.I./. .G.fXF N f f , 1.1.",
"9.q.u.P kXjX$X2.NXqX: wXQ.g.r.j.w k.k.~.-XX...L.L.Y.I.8.8.~ { p.| } Y.3X&X/._ 8.u.R C _ H.(.K...} Y.|.|.E.i.w.D {.F h f s * 1.3.",
"g.y.~.w.kX%XiX5.AX.X: tXj.q.a.fXH q.h.!.{...J.L.^.L...w.' ` ) { | } T.ZX-X^.w.0.R R =.K H.:Xm.G.L.P.I.L.] ! ^ f ].F g s s % 1.<.",
"e.h.h.u.lXfXp %.zXy M.tXr._ T 0 P ` h. X{.i. .' i.~.h.Q.w.' / u.! ] L.T.L.J.x #X! ^ 8.i.X.i.H.L.>XL.H.X.D B T f ).f w 1 - % 1.,.",
"X.` k.g.lXtX`.@ 6 & X tXr.r.r.> 2 q.k.g.*X ._ _  . .' _ Q ~ _ ~ E.^ ^ '  .| F '.D { / V B o.[ P.J.~.| ) Q ! R Q ).f 1 s - * $.$.",
"] k.h.g.jX%XM.: 5 3 o tXt.>.r.> P q.l.u.(. .) ) ' _ F ^ T T ^ ~ Q ! Q ^ ! { V wX[ ! / V D ..[ [ | e.)._ z 9.R z ).f 9 - 1 * =.,.",
"9.r.o.g.jX%Xf.; O & o wXt.q.r., U k.r.w.=.0.;.8.Z b x C R ~ ~ ~ Q K K ^ T F A dXV  ./ +X} W.! { ] 8.A A A c I j p.D b s - % 1.,.",
":.g.g.g.tXwXf.5 % 0 O wXf.p.d.> q.f.AXu.t.x =.>.b x n.z.B.B._.~ ^ Q _ ~ R ~ z @XF D R B } >X! V K k k n *.`.J s m.G G 4.- * ,.,.",
";.` o.k.tX$X@.@.s.D.O $X9.r.r.e r.;.b Q.Z e.u.e.h.E H 8.8.Z R x c T w.w.A ^ M dXF B A N D 4X[ { ~ P x x }.G v s m.- 5 N - X >.,.",
"g.g.g.h.tXeX7 y.t : 5 OX-.@.-.*.f.>.0.H +.*.=.>.I I Z V.A R Z F V V A K A V M '.V V / M ! (...{ Q c h M m V y 1 m.- 9 - 1 * ,.,.",
"o.e.g.g.wX$X7 6.,.x.6 oXx.d.>.I y.y.q.* t.8.9.q.9.~ C A F / A V K V V _ V 0.C =.F F 8.A D ~ ! ! D g M h j m , 2 f.s q - - $ -.,.",
"g.] o.g.wX$X:.d.z.F.M. Xd.NX>.=.f.* ).% n.t.>.9./ ~ P F V A A F ^ V V Q ~ _ w.Z x b $.A ( B M F M k m g B eX6 w y.Z 5 k * $ #.,.",
"e.g.] ] $X$X>.2.z.<.f.XXf.d.q.s.v.C.7XV.s.2.3.2.9.! A M F A A A ( F F H.X.{ B I M Z c.G Z f M m M 1 2 s fX .$ ] P 1 q M $ % *.<.",
"] e.f.q.OX$Xd.:.v.O.:. Xt.t.t.>.q.2.M.2.t.t.q.q.` ! T D F M x M F F R./.[.G.{ g M F Z.Z.y.m V d m , m eXm - K.s w , q 2 * , @.<.",
"` ] e.e.oX#Xs.,.3.O.>.N.q.d.t.t.5.2.2.1.>.t.>.q.8.) T Q F '.a.A ! i.L.&X2XP.[ F M x Z Z x x m z m - = * < g.2 L ^ > , < = * @.,.",
"e.` ` ` `.tXd.-.<.H >.N.>.>.q.%.@.<.6.s.6.@.;.;.^ ~ R ( F Z ( F D ( /.3X6X|.H.| A M x C C M h g j , s - K 2 h.c L P < $ * * *.,.",
"` Y ` ` N.tXs.H 3.p t _.>.0.>.q 6.2.& u b u >.>.P T n 8.uX}.a.F ( { H.T.|.U.[ D F ).x x h g 1 1 g 9 1 E N 8.1 :X_ T N 1 * 9 J <.",
"Y E ` ] n.=.+.$.z.v.V. X;.q.0.6 M.-.H z.y v =.>.Y T J R 8.}.}.F ( { [ H.U.^.W D D ( / A R q._.).m.0.=.k z w.r.z C 0.n - 1 & b ,.",
"E E ` ` f.n M.s.7.b.z.N.1.0.0.& t.@.O.y.u b @.%.I N n T Z p.4.F A ( NXF ( D F F D h s - - s - < - < - - : z N E.5 p., C o $ u ,.",
"^ ] L ^ H p.s.x.V.XX@.C.t.0.;.& *.>.v @.b @.b -.I P P A Z Z h G A A A F V A V Z N h x g h h n C Z I @.>.< , m Q.~.E b 0.= q . 3.",
"B L ] l %X%X*.u J 0X%XfXj.>.2.o * *.* q #.0.V.1.J C R N R A C C C C A M V C n x x 1 1 g s - g 9 * * *.9 9 , > r.n _.& r % o s.@.",
"L L : 4 %X%X,.y.<.N.S.OX%X*.X X o =.= 5 >.y.y.1.C C A A A Z C n C A R F 8.=.n h h h h w - 9 1 % = $ = > - * & 0 e % % 5 *.@.%.-.",
"T OX0XD.%XiX:.-.-.3.B.$XcXuX= m.M.x.B.M.n.p.B.f.=.I *.*.z.y.1.>.=.b =.=.z.C.B.'.}.8X7XV.}.'.V.C.C.n.z.t.1.t.2.f.y.1.-.p.5.5.M.2.",
"fXC.tXtXBXxX-.s.6.d.jXOXgXyX#.s.t.*.*.0.2.n.M.`.0XwXtX1.H .X$X8X8X`._.`.@X`.`.`.XX_._.m.m..XoXoX.XN.n.f._.B.m.s.-.+.+.V.M.1.%.a ",
"5.r J r r , 6 #.z.%.r %.+.%.t V.D..XOXwXOX9XOXyX-.tX9XXXV.XXrXqXrX8XV.C.C.8X7X`.8XD.7Xb.b.7Xu y H -.f.s.6.%.O.y # +   . . o o o ",
"+.  s.v.V.:.s.2.v.$Xt.t.z.s.n..XOXOX0XXXyX.XD.X m.x.M.5 y 5 4 z.v.#.+.4 3 u #.#.+.u +.$.z.H N.@.v.3.7.v.z.x.z.7.7.&.i # 8 i i + ",
"o O 3.5.f.t.u u #.5 2.6.s.f.d.:.5.r p X C.Y v.r m.s.D.% y o o @.V.e r X 6 y @.H > o y 4 s.V.S.9Xx.7.# $.7 6 7 i u <.a i + a   i ",
"@ . H : y.0.8 +.+.q 2.s.p 2..XX : o H d.%.4 X o B.3.@.6 3.o O 3.XXH 4 X 6 O.o p O . O u >.x.v.x.v.&.+ +.+ +.8 i 8 +.i $.8 i 7.  "
};
