/* XPM */
static char *_7e590be1df64be9dfec76eea3ff4ae0dCAVzKuhX8HpLOiF[] = {
/* columns rows colors chars-per-pixel */
"64 64 21 1 ",
"  c #A2D381",
". c #A3D482",
"X c #A4D583",
"o c #A5D684",
"O c #A6D785",
"+ c #A7D886",
"@ c #A8D987",
"# c #A9DA88",
"$ c #AADB89",
"% c #ABDC8A",
"& c #ACDD8B",
"* c #ADDE8C",
"= c #AEDF8D",
"- c #AFE08E",
"; c #B0E18F",
": c #B1E290",
"> c #B2E391",
", c #B3E492",
"< c #B5E694",
"1 c #B8E997",
"2 c #BBEC9A",
/* pixels */
"2<:,,;-:--------------------------------;;;;;;;;;;;;;;;;:-;::-:1",
":%+$$oo@oooooooooooooooooooooooooooooooooooooooooooooooo@oo@+o$=",
"=@oo+XXoooooooooooooooooooooooooooooooooXXXXXXXXXXXXXXXXo.Xoo.o&",
";$+@$+o@++++++++++++++++++++++++++++++++++++++++++++++++@oo@+o$=",
"=+Xo+oo+XXXXXXXXXXXXXXXXXXXXXXXXXXXXXXXooooooooooooooooooXXoo.+&",
"=+X+@oo@oooooooooooooooooooooooooooooooooooooooooooooooooXXooX+=",
"=@o@$++$++++++++++++++++++++++++++++++++@@@@@@@@@@@@@@@@@oo@+o@=",
"%o.o+oo+ooooooooooooooooooooooooooooooooooooooooooooooooo..oo.o%",
"=@oo+oo+ooooooooo+oooo+ooooooooooooooooooooo+ooooooooooo+oo+oo@=",
"=@oo+oo+ooooo+ooo+oooo+ooooooooooooo+ooooooo+ooooooooooo+oo+oo@=",
"=@oo+oo+oooo++oooooooooooooooooooo++oooo+ooooooooooooo+++oo+oo@=",
"=@oo+oo+oooooooooooooooooooooooooooooooooooooooooooooo+o+oo+oo@=",
"=@oo+oo+oooooooooooooooooooooooooooooooooooooooooooo+ooo+oo+oo@=",
"=@oo+oo+ooooooooooooooooooo++ooooooooooooooo++oooooooooo+oo+oo@=",
"=@oo+oo+oooooooooooooooooo++oooooooooooo++oooooooooooooo+oo+oo@=",
"=@oo+oo+oooo+ooooo+++oooooooooooooo++ooooooooooooooooooo+oo+oo@=",
"=@oo+oo+ooooooooooooooooo+ooo+ooooo++oooooooooooooo+oooo+oo+oo@=",
"=@oo+oo+ooooooooooooooooo+oooooooooooooo++oooooooooooooo+oo+oo@=",
"=@oo+oo+ooooo+oooooooooooooooooooooooooooooo++oooooooooo+oo+oo@=",
"=@oo+oo++oooo+ooo+ooooo+oooooooooooooooooooooooooooooooo+oo+oo@=",
"=@oo+oo+ooooo++ooo+oooo+oo+ooo++oooooooooooooooooooooooo+oo+oo@=",
"=@oo+oo+oooooooooo+ooooooo+oooooooo+oooo+ooooooooo++oooo+oo+oo@=",
"=@oo+oo@oooooooooooooooooooooooooooo++oo+ooooooooo+ooooo+oo+oo@=",
"=@oo+oo@oooooooooooooooooooooooooooooooooooo+ooooooooooo+oo+oo@=",
"=@oo+oo+oooooooooooooooooooooooooooooooooooooooooooooooo+oo+oo@=",
"=@oo+oo+o+oooooooooooooooooooooo++oooooooooooooooooooooo+oo+oo@=",
"=@oo+oo+oooooooooooooooooo+oooooooooooo+oo+ooooooooooooo+oo+oo@=",
"=@oo+oo+oooooo++oo+oooo+oo+oooo+ooooooo+oo+oooo+oo+ooo+++oo+oo@=",
"=@oo+oo+ooooooo+o+ooooo+oooooooooooooo++o++ooooooooooooo+oo+oo@=",
"=@oo+oo+ooooooo+o+oooooooooooooooooooooooooooooooooooooo+oo+oo@=",
"=@oo+oo+++ooooooooooooooo+ooooooo+ooooooooooooooooooo+oo+oo+oo@=",
"=@oo+oo+ooooooooooooooooo+ooo++ooooooooooooooooo++ooo+oo+oo+oo@=",
"=@oo+oo+oooooooooooooooooooooo+oooooooooooooooo+oo+ooo+++oo+oo@=",
"=@oo+oo+oooooooooooooooooo+ooo+ooooooooo+oooooo+oo+ooooo+oo+oo@=",
"=@oo+oo+oooooooooooooooooo+ooooo+ooooo+++ooooooooooooooo+oo+oo@=",
"=@oo+oo+ooooooooo++o++oooooooooo+ooooooooooooooooooooooo+oo+oo@=",
"=@oo+oo+oo+oooo+oooooooooooooooooooo+oooo+oooooo++ooo+oo+oo+oo@=",
"=@oo+oo+o++oooooooooooooooooooooooooooooo+oooo+ooooooooo+oo+oo@=",
"=@oo+oo+oooooooooo+oooooooooooo+oooooooooooooooooooooooo+oo+oo@=",
"=@oo+oo+oooooooooooooo++oo+oooo+oooooooooooooooooooooooo+oo+oo@=",
"=@Xoooo@ooooooooooo+oooooooooo++oooooooooooooooooooooooo+oo+oo@=",
"=@Xoooo@ooooooooooo+ooooo++oooooooo+oooooooooooooooooooo+oo+oo@=",
"=@Xoooo@ooooooooooooooooooooooooooo+oo+oooo+o+ooooooo++o+oo+oo@=",
"=@Xoooo@oo+ooo++oooooooooooooooooooooo+oooo+o+oo+oooo+oo+oo+oo@=",
"=@Xoooo@oooooooooo+oooooooooooooooo+oooooooooooooooooooo+oo+oo@=",
"=@Xoooo@oooooooooo+o+ooooooooooooooooooooooooooooooooooo+oo+oo@=",
"=@Xoooo@ooooo+ooooooooooooo+oooooooooooooooo+ooooooooooo+oo+oo@=",
"=@Xoooo@++ooo+ooooooooooooo+o+ooooooooo++ooooooooooooooo+oo+oo@=",
"=@Xoooo@ooooo+ooooooooo+ooooo+ooooooooooooooo+ooooooooo++oo+oo@=",
"=@Xoooo@oooo++ooooooooo+oooo++oooooooooooooo++ooooooooo++oo+oo@=",
"=@Xoooo@oooooooo+oooooooooooooooo+oooo++oooooooo+ooooooo+oo+oo@=",
"=@Xoooo@ooo+ooooooooooooooo+ooooo+ooooooooo+oooooooooooo+oo+oo@=",
"=@Xoooo@oooooooo++oooooooooooooooooooooooooooooo++oooooo+oo+oo@=",
"=@Xoooo@oooooooooooooo+ooooooooooooooooooooooooooooooo+o+oo+oo@=",
"=@Xoooo@oooooooooooooo+ooooooooo+ooooooooooooooooooooo+o+oo+oo@=",
"=@Xoooo@oooooooooooooooooooooooooooooo++oooooooooooooooo+oo+oo@=",
"-@ XoX.XoooooooooooooooooooooooooooooooooooooooooooooooooXXooX+&",
":$Xo@ooo++++++++++++++++++++++++++++++++++++++++++++++++@oo@+o$=",
"-@.Xoo.ooooooooooooooooooooooooooooooooooooooooooooooooooXXooX+&",
";@.o+oXoXXXXXXXXXXXXXXXXXXXXXXXXXXXXXXXXXXXXXXXXXXXXXXXXoXo+oX+=",
",%o@$@+@++++++++++++++++++++++++++++++++++++++++++++++++$+@$$+$;",
";@.o+oXooooooooooooooooooooooooooooooooooooooooooooooooo+Xo+oX+=",
";@.o+oXooooooooooooooooooooooooooooooooooooooooooooooooo+Xo+oX+=",
"1;%=-=&=------------------------------------------------=&=-=&-<"
};
