/* XPM */
static char *_2819925b6864874e326de469daa8c6csmqiuOvEhYT6EUF7[] = {
/* columns rows colors chars-per-pixel */
"64 64 4 1 ",
"  c #034F34",
". c #FF002A",
"X c #FF607B",
"o c #BCD0C9",
/* pixels */
"XXXXXXXXXXXXXXXXXXXXXXXXXXXXXooooooooooooooooooooooooooooooooooo",
".............................                                   ",
".............................                                   ",
".............................                                   ",
".............................                                   ",
".............................                                   ",
".............................                                   ",
".............................                                   ",
".............................                                   ",
".............................                                   ",
".............................                                   ",
".............................                                   ",
".............................                                   ",
".............................                                   ",
".............................                                   ",
".............................                                   ",
".............................                                   ",
".............................                                   ",
".............................                                   ",
".............................                                   ",
".............................                                   ",
".............................                                   ",
".............................                                   ",
".............................                                   ",
".............................                                   ",
".............................                                   ",
".............................                                   ",
".............................                                   ",
".............................                                   ",
".............................                                   ",
".............................                                   ",
".............................                                   ",
".............................                                   ",
".............................                                   ",
".............................                                   ",
".............................                                   ",
".............................                                   ",
".............................                                   ",
".............................                                   ",
".............................                                   ",
".............................                                   ",
".............................                                   ",
".............................                                   ",
".............................                                   ",
".............................                                   ",
".............................                                   ",
".............................                                   ",
".............................                                   ",
".............................                                   ",
".............................                                   ",
".............................                                   ",
".............................                                   ",
".............................                                   ",
".............................                                   ",
".............................                                   ",
".............................                                   ",
".............................                                   ",
".............................                                   ",
".............................                                   ",
".............................                                   ",
".............................                                   ",
".............................                                   ",
".............................                                   ",
".............................                                   "
};
