/* XPM */
static char *result[] = {
/* columns rows colors chars-per-pixel */
"64 64 255 2 ",
"   c #0A0807",
".  c #0B0B0C",
"X  c #130C0D",
"o  c #110F11",
"O  c #190D14",
"+  c #0D1417",
"@  c #141415",
"#  c #181519",
"$  c #191919",
"%  c #23050D",
"&  c #290D17",
"*  c #340D1B",
"=  c #28151A",
"-  c #241B1D",
";  c #33121D",
":  c #3C141D",
">  c #1E2019",
",  c #24221E",
"<  c #33241F",
"1  c #191B24",
"2  c #1F1C35",
"3  c #340E24",
"4  c #2C1B24",
"5  c #281928",
"6  c #3B1522",
"7  c #361826",
"8  c #321C2C",
"9  c #2A1E32",
"0  c #371E33",
"q  c #1C2226",
"w  c #1E2031",
"e  c #2B2324",
"r  c #272628",
"t  c #23232C",
"y  c #2B2C2B",
"u  c #37262A",
"i  c #332C2B",
"p  c #2C312E",
"a  c #38322C",
"s  c #2A2835",
"d  c #372736",
"f  c #332C35",
"g  c #2C3335",
"h  c #343434",
"j  c #3C3432",
"k  c #34353B",
"l  c #39373A",
"z  c #3C3B3B",
"x  c #450B18",
"c  c #44131C",
"v  c #451926",
"b  c #4B1C2B",
"n  c #571B2A",
"m  c #541C2B",
"M  c #471D33",
"N  c #561D33",
"B  c #761C36",
"V  c #47272B",
"C  c #56242B",
"Z  c #453228",
"A  c #472738",
"S  c #582839",
"D  c #453637",
"F  c #44333C",
"G  c #433B3C",
"H  c #4A3C3C",
"J  c #57343C",
"K  c #67293A",
"L  c #722B35",
"P  c #66343C",
"I  c #3D413D",
"U  c #45423A",
"Y  c #163652",
"T  c #3B2A42",
"R  c #3D3C43",
"E  c #383845",
"W  c #32364A",
"Q  c #4B2944",
"!  c #572944",
"~  c #5B2B43",
"^  c #443443",
"/  c #493747",
"(  c #423B43",
")  c #583846",
"_  c #5D2E59",
"`  c #4A3956",
"'  c #573B57",
"]  c #632A44",
"[  c #682A47",
"{  c #772A48",
"}  c #6C3344",
"|  c #673847",
" . c #763748",
".. c #6F2E52",
"X. c #6A3756",
"o. c #773758",
"O. c #563F62",
"+. c #653E60",
"@. c #793C62",
"#. c #3D4343",
"$. c #3D424A",
"%. c #3D4854",
"&. c #234E71",
"*. c #444343",
"=. c #4B4444",
"-. c #4B4A45",
";. c #44444B",
":. c #4B454B",
">. c #444B4A",
",. c #4B4C4C",
"<. c #564548",
"1. c #534B4C",
"2. c #5B4B4C",
"3. c #47534D",
"4. c #59524C",
"5. c #494556",
"6. c #4B4B52",
"7. c #564756",
"8. c #5B4C54",
"9. c #5C435C",
"0. c #4C5254",
"q. c #4A545A",
"w. c #525354",
"e. c #5B5354",
"r. c #55575A",
"t. c #5C555B",
"y. c #545B5C",
"u. c #5C5A5D",
"i. c #66454B",
"p. c #63544C",
"a. c #664959",
"s. c #784D55",
"d. c #784658",
"f. c #7D4D5B",
"g. c #655656",
"h. c #64535C",
"j. c #635B5B",
"k. c #5B625C",
"l. c #63645D",
"z. c #7A6F5D",
"x. c #4A4A61",
"c. c #5A4765",
"v. c #4C5962",
"b. c #555863",
"n. c #5B5C62",
"m. c #674665",
"M. c #784668",
"N. c #675763",
"B. c #755966",
"V. c #774B73",
"C. c #6A5074",
"Z. c #556466",
"A. c #5B6264",
"S. c #5C656A",
"D. c #596D77",
"F. c #686668",
"G. c #646B6C",
"H. c #746769",
"J. c #6E726B",
"K. c #646B72",
"L. c #696A74",
"P. c #786B75",
"I. c #697577",
"U. c #777675",
"Y. c #8A3137",
"T. c #863439",
"R. c #842B49",
"E. c #833B46",
"W. c #90334E",
"Q. c #873757",
"!. c #95375A",
"~. c #A93C4C",
"^. c #A33859",
"/. c #893D63",
"(. c #973C65",
"). c #A53C63",
"_. c #B33F6B",
"`. c #85485A",
"'. c #974F5A",
"]. c #86565C",
"[. c #AD4A56",
"{. c #8D635C",
"}. c #834D62",
"|. c #894969",
" X c #98466A",
".X c #875767",
"XX c #95566A",
"oX c #884D73",
"OX c #994B73",
"+X c #885577",
"@X c #9A5575",
"#X c #A7446A",
"$X c #A05D6B",
"%X c #A64A74",
"&X c #AC4B73",
"*X c #B64B75",
"=X c #A8557A",
"-X c #B8547C",
";X c #866577",
":X c #926872",
">X c #837A79",
",X c #A76C7C",
"<X c #C34D7B",
"1X c #C5527F",
"2X c #7A837D",
"3X c #95857C",
"4X c #156193",
"5X c #7A5582",
"6X c #6E7883",
"7X c #767C83",
"8X c #975782",
"9X c #A75882",
"0X c #B85986",
"qX c #926F89",
"wX c #A86D8D",
"eX c #BA628A",
"rX c #BA6692",
"tX c #B97EA2",
"yX c #C85886",
"uX c #D45989",
"iX c #D15F91",
"pX c #C9628C",
"aX c #C76995",
"sX c #CE6A95",
"dX c #D66595",
"fX c #E26C9B",
"gX c #CA77A1",
"hX c #D677A5",
"jX c #E577A6",
"kX c #788588",
"lX c #738992",
"zX c #1DA2D1",
"xX c #41B3CF",
"cX c #838A89",
"vX c #858D93",
"bX c #8A9799",
"nX c #969290",
"mX c #959898",
"MX c #AB8B99",
"NX c #94A29B",
"BX c #B0A49B",
"VX c #9394A5",
"CX c #AE8CA4",
"ZX c #96A7AE",
"AX c #ACB2B1",
"SX c #D889AF",
"DX c #E987B4",
"FX c #E68BB1",
"GX c #DFAABC",
"HX c #94ABCA",
"JX c #EA9CC2",
"KX c #EDADCA",
"LX c #BED8D7",
"PX c #C8CECD",
"IX c #ECD3E0",
/* pixels */
"vX1 lXNXlXNX$ 0.3.y.k lXl.BXAXJ.I.I.I.I.K.S.S.S.I.kXcXcXbXp >.y.A.G.kXkXvX6XS.A.G.I.G.I.L.K.G.G.K.Z.k.Z.Z.A.A.n.3.$.U t Z.k.k.y ",
"lX+ NXNXbXNXq %.y.J.p AXAXAXAXAXAXlXkXVXVXlXlXlXI.Z.b.I.3.6XvXvXvXvXkXlXkXkXlXkXL.I.D.Z.Z.q.I.kXkX2XkXD.D.y.y.0.q.>.;.k.3.*.z f ",
"D.lXk.%.y p q z q p 0.#.#.#.D.bXZXAXZXAXAXZXbXvXq lXbXvXmXmXZXNXbXlXmXbXlX6X6XU.vXNXVXbXkX2XG.2X2XI.G.l.F.F.G.U.U.J.U.z U U G a ",
"l.k.k.k.6XD.#.$.#.>.F.A.G.Z.G.I y K.%.I.1 #.. kXR $ + g G.J.7Xy $ r r.2Xk.#.+ q 1.J.*.;.q o kX+ G.. -.+ @ + @ @ @ . -.G 4.a a a ",
"0.I k.I D.Z.n.w.,.u.y.3.k.k.k.p q kXI 6X1 k q ZX5.1 q G.kXvXbX:.@ ;.A.NXcXI >.g G.cXr.,.p $ 2XJ.G.+ z.z n.kXG.A.y.q -.U p.X o   ",
"h h k.%.k.v.y.e.A.r.0.y.I.%.D.#.y.S.g $ + 1 I.7XA.$ q U.r $.bXg . g #.k.#.z q.q *.J.U.t 1 . A.F.G.. l.j u.>.*.h $ 3.g.>.-.X   I ",
"G.> q.v.3.q.r.:.0.$.0.y.>.$.G.k.Z.I.k p 1 + cXNXS.q y 7X1 r mXq + g U.kXg y r.q k kX2X, . $ I.g G.J.I.ZXPXPXPXAXkXS.4.k.> a U U ",
"g Z.PXLXLX,.y 6.q.I #.AXPXLXLXI.I.%.Z.y.n.Z.A.S.q *.0.A.I.L.L.F.L.G.F.F.u.H.F.F.g.u.F.G.S.K.I N.k.k.G.F.Z.K.S.S.q.0.U X BX3XBXBX",
"F.k.vXmXvXNX1 6.Z.q.l.ZX#.xXBXU.K.lXlXK.I.K.G.K.$ U.J.P.H.F.H.U.U.U.H.N.H.j.B.j.B.B.B.H.H.N.H.j.j.g.g.e.u.e.4.r.h.8.=.- :X{.f.{.",
"n.A.AXmXmXmXs Y 4Xk k.ZXAXZXw.F.t.H y n.( G.F.G.s 5.E x.x.5.5.` ` :.' ` M.` ` ` ` ' / t ^ 5.^ z f s d d f s k s t t t 5 3X{.{.'.",
"b.y.S.1 mXnX6.%.Z.%.k.bXmX:.1.;.( w.;.e.y w.nXn.f 5./ b.BXc.5.5.` / 5.' IXc.` / ` ` ` f O.` X.^ d d ^ ^ s w q F.F.8.$ 9 ZXI $X'.",
"K.G.b.q.@ I.6.x.Z.k.3.2Xo 5.w.( G j.N.F.j.j.j.u.d x.R O.' c.7.` ` 7.' ' c.' O.c.@.C.7.` O.x.c.T T T d s W s qXF.8.# u # > r {.[.",
"HXZ.%.Z.1 kX#.&.,.l.>.U.,.;.` z f F.H.F =.j.t.t.l x./ c.m.7.j ` T ` ` C.m.9.9.+.O.C.c.' O.x.` / ^ T T ^ W 7Xa.H.= e.B.a.> q k C ",
"6XD.q.Z.o 7Xr.#.A.,.mXU.:.b.b.f ( g.F.F / 8.t.n.l 9.7.9.c.1.6.` ` 7.;Xs.) 7.B.j.C.O.C.' c.C.m.) ` / / d e B.m.A / P.H s.N.q j `.",
"D.G.y.v.. K.;.k k h R L.;.b.v.u 7.e.H.) e.1.8.8.d 7.7.' c.8.b.c./ / d 7 f F B.m.C.@.C.c.C.C.c.' a.+X` F d.B.F 2.>Xa.N.H.y.1 z L ",
"K.A.r.v.o K.n.n.6.n.r.G.R 7.7.s O l F.i - -.8.h.f 5.7.' a.h.E ` ` 9.;XP.qX>XC.m.C.5X5XC.5XC.M.a.M..XB.a.9.8 a.>XB.P.;XmXw 5 G s.",
"7XN.q.v.# S.*.g #.*.( F.R 7.7.N.P.P.>X>X>XH.a.8.d ' ' 7.' 8.T c.O.a.m.P.N.N.9.m.C.C.V.9Xc.qXO.' / ` Q 8 Q 5 ;XB.B.) MXs 1 1 R  .",
"+ $ n.u.@ A.G.@ @ U e.k.R r.8.^ F.1.j.f u 5.N.h.u ' B.9.a.m.A ` ! ' ' m.O.m.9.) +X.XMXm.c.qXC.c.` ` ` T wXA ) B.A mX1 s 5 s j `.",
"v.v.0.8.$ A.P.$ $ r w.t.R r.t.7.N.N.P.N.c.N.m.t.d a.| m.M.M.m.X.m.X.+.+.V.X.m.' M.o.M.M.+.wXC.O.O.` ` ` ` a.| Q 7 e 1 1 MXr j  .",
"v.v.6.e.1 n.G.N.y e 1.n.^ 8.5.7.n.h.:.7.N.N.m.a.8 m.X.M.tXM.] X.V.@.+.M.M.m.M.Q M.@.M.+XV.SX8XV._ Q ` ` ` ^ u 7 7 5 9 1 5 e z E.",
"r.t.u.e.+ v.j.U.U.J.1.t.E 7.7.5 8.7.a.a.8 3 ; & N.d.V.V.oXV.C.V.V.V.V.oXKXV.d.o.@.@.X.@.o.tXaX/.+.' ' ` ` Q u u u 9 9 t 8.t l E.",
"R :.1.A.1 y.N.$ y e u.n.( c.c.4 8.h.s.<.qXV.d.CXV.V.oX+XV.5X8X5XoX8XoX@.o.@.M...@.@.oXX.X.wX@.+.+.GX' ' ' Q F d A 9 8 9 9 5 F Y.",
"f =.5.b.$ u.u.e e $ j.t.^ ' c.i a.a.h.' qXM.o.CXM.|.oXoXoX8X8X8X8X8X8X|.|.M.@.o.@.Q.@.M.X.wXX._ X.X.~ ) J / A d M 9 0 5 1 5 D Y.",
"f =.6.q.@ u.e.U.U.3Xe.t.R m.a.V a.d ~ ) qX@.|.M.oXoX9X9X9X9X8XwX9XrXOXo.X.M.X.@.o...|.X.o.@Xo.X._ X.~ Q A A A e 0 9 9 9 9 5 D ~.",
"R f a d # n.F.U.>Xz.4.u.^ ' a.A i.) ;X.X+XM.oXOXoX8X9XrXrXrXrXgXgXgXrX=XOXOXoX/././.@._ ....! ~ ) ) ! Q A A d 8 0 9 9 T t 9 F ~.",
"( <.9 0 t t.j.e.j.U.U.u.^ a.9.J a.~ S ) qXoXAX8XOX%X0XrXaXaXgXSXgXrXrX0X9X8XOX X/.o.o.X._ X.! ` ) ~ ] @.Q A A 8 8 9 d t 5 s D ~.",
"R u 5 i e j.U.>XJ.:.4.j.( c.8.! 2.i.2.i.qX@.8X=X=X9XaXrXtXgXDXJXDXsXgXrX8X9X9X(./.|.|.V.5X8X/ Q _ o.[ S S M 0 8 0 d 5 8 9 8 J [.",
"( ^ %.W $ r.j i y , p.u.:.m.c.J h.: M.oXV.@.OXOXOXeX0XrXaXSXjXDXhXgXrXKX9X0X9XOX/.o.Q._ ~ C.' ! Q ] ~ ~ ! 0 0 0 0 T 0 T 9 s J [.",
":.G ` %.# t.z -.U H p.u.:.a.a.S a.: oX+XqX+XOXOXeXaXaXgXgXSXhXFXjXhXhXrX9X9X_.8X/./.o.X.! _ +.! Q N ! ] M M M P.Q 0 8 0 8 8 ) [.",
"R ^ W ` # t.r 4.4.i g.e.9.X.d.C B.; oX+XVX9X=XaX=XaXhXaXrXrXaXgXhXhXhXaX9X%XOX(././.|..._ o.V.! ! ! ..{ M A A T ! M M d 5 8 | [.",
"f E ^ E O 8.i 1.2.D g.j.2.X.d.A .X; oXqXHXSXOX..$X@XS 9X0X0XrXaXhXhXaX0X%X&X9X X/./.o.Q.X.X...@.Q N N ] [ K ! ^ Q ! ! _ 7 0 i.[.",
"f l ^ / O 7.j g.g.=.p.j.i.M.d.J s.= OXqXHX8X9X0X`.=X|.|.+X+X~ rXrXrXyX0XfX0X*X(.(.Q.o...o.../...! S X...o.[ [ ! ! Q N ..A T | vX",
"BXAXR ( @ 8.l.H.e.j 4.e.2.|.M.C f.v oXMXHX9X=X%X{ 9X+Xd.oXo.X.&X9X0X0XyXhXyX%X(./.@.@.o.o.X.....N [ ! ] o...o. .Q./...^.Q Q ) T ",
"H =.5 / O h., g.1.i <.a.| f.`.C f.* |.@XVXOXOX%X`.OXOX/./. X..#X%X9X9X*X#X&X X X/./.........{ [ ! ! [ ] [  .}  XKXuX!.).{ V.| ~.",
"<.7.e / O 2., 1.,.i 1.p.) o.d.P `.= |.=XVX(. XOXOX%X/.oX(. Xo.(._.(.%X%X). X(.OX/./.|.@...~ ] [ ! ! ! ! [ d.[ @.0X).R.W.<X3 | ~.",
"2.a.H / O 2., <.=.i 2.p.A d.:X].`.% oXoXtX@.|.XX@X X X|./. XQ.qX/.OXOX&X9X%XOX X/. XyX(.o...S ~ N .._ W Q A ! M [ A N ! 3 4 P ~.",
"7.g.p./ = 1.# / :.e 2.p.V X.i.X.f.|.|.=X.X|.}.`.@X X XXX(.%X/.[  X XOX%X&X&X&X=X(.%XsX#Xo.{ ] ! ] Q.[ Q M M A 0 M d M 3 9 5 S ~.",
") h.H A e N.- = = - / i.6 | X. .}.XX|.:X$X|.d.M.@X XXXOX%X%X%X&X&X X%X&X&X&X&X X%X#XpX%X%X[ ] ] N N N M M M V M M Q M 5 5 = J ~.",
"A g.T ) i a.D G H u J p.u | K P }  .`.`..XM.M.) XXK OX=X).-X0X-X-X&X&X-X&X&X&X&X).%X_.(./.o...{ [ N v M M M M 0 7 8 7 d d 5 C [.",
"A N./ 1.u 7.u Z U u D i.U s.P i.f.`.| } ].~ }.a.).&X%X*X&XhXyXiXyX0XyX-X&X*X#X).(.(.(.(.OXR.{ [ wXN v 0 M 0 d 6 3 u * 5 8 e C Y.",
"V N.F / f ) i 2.H a <.2.<.f.s.`..X| }.} XX}.B.d.%X&X&X=X-XyXaXiXiXuXpXyX#X&X,X'.!.(.%X X/.Q.W.K N b M b v 7 7 ; 3 8 ; s 9 3 A W.",
"N N.^ A F H H g.U j J <.i.i.i.`..X| } C `.f.M.a.*X*X0X*X0XyX0XsXdXdXyX<X&X#X-X!.W.Q./.Q.o.o.9X] N N v M v 7 B.: 3 9 6 = 5 5 C Y.",
"! F.^ F G ) 2.8.U A U 2.i.f.| s.}.} d.P .X:X].| ).iXdXeXyXyX-XiXdXfXyX<X&X*X-X!.!.Q.Q. ...[ ..[ M M b v v 7 ; V P ~ N 6 KXu Z T.",
"[ qX/ J G / 2.2.<.e i.2.B.].]..X:X].$X.X.X].f.X.*X1XiX0XyXiXiXiXdXuX1X*X!.#X-X!.Q.Q.!...] [ ..{ ! N b v v C C c v & * ; & ; V Y.",
"{ VX! H D H 1.p.<.- <.<.J  .L `.`.`.'. XXXXX$X%XyXyXuXpXdXdXjXjXjX1X<X*X!.#X XR.Q.K [ [ [ N K Q.N n m v V S c b b 7 = = = = Z Y.",
"Q.AX) / j ) j <.e.e.U i.= c V J P J XX} C n n P 0XyXjXdXjXjXDXjXfX1X<X0XW.W.'.'.L [ ] GX] K S C n m n m c c v C GX| * = - & V L ",
"s.d.i.| - ) / # - = Z 2.J |  .`.`.].C C `.`.'.XXyXiXjXjXKXDXDXfXuX<X^.^.R.Q.`.R.[  X[ S S | `.,X'.E.} n n '.x c c 7 ; = = = Z L ",
"P P P | X H ) j Z D <.p.J | } `.`.XX,XC  X'..X+XhXdXDXKXIXDXjXiX<X[.^.#XR.R.Q.{ K K m b b v v v 6 v C n KXc wXV M u : = @ & V L ",
"J P J ) X J G u Z D <.i.i.P i.} { L  . .`.`.}.}.dXjXJXDXJXjXhXiX_.).^.!.B R.|.!.{ N N m b b b b * 7 b SXQ.`.6 ) 7 :X& 7 3 = u T.",
"} J ) J O H G j j 2.H 2.) | s.J C P K K ] ].|.}.dXGXfXDXDXjXiXyX<X^.^.W.W.R.R.B K K b m b : = ; * ; - c =XC S X.J M.qX& O & V T.",
"L P ) | O H a D D G p.=.J | | J XX'.d.`.d..X`.}.uXuXjXfXjXuX<X*X_.).W.R.R.{ Y.{ B m n m v v 6 ; = ; ; eXC ; b d.S `.M.6 7 = V T.",
" .P P ) = D :.e.j.H.F.<.A S J Z L  .'.`.P :Xd.`.yXfXfXfXuX<X*X*X_.^.W.R.R.R.R.K N m N b v v 6 7 : = ; wXP K b .X[ v f.S 3 = C L ",
" . .| J O D U 4.U U g.=.F S Q P  . .L  .P d. .d._.yX1XuX1X_._.)._.(.R.R.W.FXL B K n n m v c c : : : : c :Xs. .N XXB m :Xc = C Y.",
" .P A J O D >X1.g.U e U A J D J P P L  .K `.i.d.%X).yXuX1X*X(.!.Q.!.R.R.{ R.K N v n v b 6 : ; ; & % & & = :X .P K $XB x & O V L ",
"J V V S O D =.H 4.a u H u A = s.P K J s.i.s.| i.o.!.#X<X<X^.!.Q.R.R.{ { R.R.K } m s.,XXX].i.C v c ; : & & - ,X| } C L c & O Z z.",
"S V J V U.p.a e i e $ p.nXA C Z C J C | ) J ) <.[ R.!.#X~.^.!.R.R.[ { {  . .P L n C C V c c C K P L C c & ; e .Xb K b e < p.Z Z ",
"S A Z p.U 2.$ < i , e p.z.PXV C J s.A ) J ) J ) .. .o.Q.o.`.| ] [ [ K ] ..~ | V .Xu u u - e i r - e i - 5 = # - & - $ - >Xa Z a ",
"<.l z.z.U p.X e i r G p.$ J.J.$.v.3.-.,.1.2.<.1.e.8.2.2.<.<.2.1.:.` ( ;.-.*.=.U =.=.=.G ( ( z *.U ;.-.-.G z j a a i a X a Z <   ",
"-.r.e.j.4.p.$ i i , , a h.h.n.t.1.U BXs -.6.6.0.>.,.0.-.U :.6.:.;.E ;.R 5.$.6.,.-.#.l z j p h j p z h h h h g g y y y y , < < 3X",
"o .       y $ , y e , e       X o O # r R b.D.v.b.y.5.b.N.n.R E W W s 2 + + + w W 5.v.K.q.6.%.%.E W $.E R s T t t s s t .     X ",
"I I ,.4.U j I a y i a D U #.#.$.g W $.b.;.$.R #.` *.6.;.$.I R k R #.;.h k k 6.;.y.z #.k y t y z *.#.>.,.z q g p y y q > $ @ o X ",
"h U U $ 3.k.U p a a 3.,.:.j I g #.nXk.t.-.-.r e i i a i o y l o A.t H U l <.J.k y.A.*.k I #.$.Y &.zXzXY Z.g s s y s ( *.. o o X ",
"U X @ @   X g #.U p l y   y k I z ,.U.r -.*.-.G =.h a y @ > I j z U U X e l w.f q.n.g y $ 1 q g &.zXLX4XW q t E q.D.1 I   X X   ",
"$ $ $ $ $ $ $ $ $ $ $ $ $ @ $ $ $ @ $ $ $ # $ # @ @ $ $ $ $ @ @ $ @ $ $ $ $ $ $ $ $ $ $ $ $ $ $ + $ 1 1 $ $ $ @ $ @ $ @ @ $ @ $ "
};
