/* XPM */
static char *_2eea099c69a485a8bb52756e93e522amh7oKVaxQSUM9Dth[] = {
/* columns rows colors chars-per-pixel */
"64 64 123 2 ",
"   c #F7A303",
".  c #FEA501",
"X  c #FEA802",
"o  c #F6A40A",
"O  c #F9A409",
"+  c #F8A509",
"@  c #FAA608",
"#  c #FAA709",
"$  c #FBA709",
"%  c #F9A40B",
"&  c #F9A60A",
"*  c #FAA70B",
"=  c #FDA408",
"-  c #FCA508",
";  c #FDA609",
":  c #FFA608",
">  c #FEA708",
",  c #FFA708",
"<  c #FFA709",
"1  c #FCA50A",
"2  c #FFA60A",
"3  c #FEA70A",
"4  c #F8A40D",
"5  c #FAA50C",
"6  c #F9A60C",
"7  c #F8A70D",
"8  c #FAA70D",
"9  c #F8A70F",
"0  c #FAA60F",
"q  c #FCA70C",
"w  c #FEA70C",
"e  c #F9A308",
"r  c #F8A809",
"t  c #FBA908",
"y  c #FBA80A",
"u  c #FCA808",
"i  c #FDA909",
"p  c #FFA908",
"a  c #FFA809",
"s  c #FCAA09",
"d  c #FEAA09",
"f  c #FFAA09",
"g  c #FCA80A",
"h  c #FCA90B",
"j  c #FDA90B",
"k  c #FFA80B",
"l  c #FFAE0B",
"z  c #F9A90C",
"x  c #FAAA0D",
"c  c #F9A80E",
"v  c #FBA80E",
"b  c #FDA80D",
"n  c #FCA90D",
"m  c #FDA80F",
"M  c #FFAD0C",
"N  c #FFAC0D",
"B  c #FFAD0D",
"V  c #FFAC0E",
"C  c #FFAD0E",
"Z  c #FFAC0F",
"A  c #FFAD0F",
"S  c #FFAE0E",
"D  c #FFAF0E",
"F  c #FFAF0F",
"G  c #FFB00F",
"H  c #FBA710",
"J  c #FBAA13",
"K  c #FEAB11",
"L  c #FCAB13",
"P  c #FFAB12",
"I  c #FFAC10",
"U  c #FFAD10",
"Y  c #FFAE10",
"T  c #FFAF10",
"R  c #FFAE11",
"E  c #FFAD12",
"W  c #FFAE12",
"Q  c #FFAF12",
"!  c #FFAE13",
"~  c #FFAC14",
"^  c #FFAE14",
"/  c #FFAF14",
"(  c #FFAF15",
")  c #FFAD16",
"_  c #FFAE16",
"`  c #FFAE17",
"'  c #FFAF18",
"]  c #FFB010",
"[  c #FFB110",
"{  c #FFB012",
"}  c #FFB113",
"|  c #FFB312",
" . c #FFB014",
".. c #FFB214",
"X. c #FFB315",
"o. c #FFB414",
"O. c #FFB514",
"+. c #FFB415",
"@. c #FFB615",
"#. c #FFB416",
"$. c #FFB817",
"%. c #FFB218",
"&. c #FFB318",
"*. c #FFB319",
"=. c #FFB11A",
"-. c #FFB21A",
";. c #FFB21B",
":. c #FFB31B",
">. c #FFB619",
",. c #FFB719",
"<. c #FFB41A",
"1. c #FFB51B",
"2. c #FFB31C",
"3. c #FFB51D",
"4. c #FFB51E",
"5. c #FFB61E",
"6. c #FFB71F",
"7. c #FFB81B",
"8. c #FFB720",
"9. c #FFB821",
"0. c #FFBD26",
"q. c #FFBF28",
"w. c #FFC029",
/* pixels */
"w.9.;.;.1.+.} } } } } } } } ` ` E E E E E E E E E E E E E E E } } } } } } } } } X.X.X.X.X.X.X.X.;.;.+.+.+.+.+.+.$.+.1.7.5.5.9.0.",
"2.L 4 0 z r @ @ @ @ @ @ % % - - - X - X % X % @ - X - X - X - X % X % X % X % X s s s s s s s j % % - @ X X - X j X % z z 0 J ' ",
"` 0 o o %       . . . .           .   @   .   .   .   .   .   @ @ @ @ @ @ @ @ @ @ @ @ @ @ @ @ @           . @ . .     % r o 0 L ",
";.L % % j @ @ X X X X X X X X X X X X X X X X X X X X X X X X X X X X X X X X X X X X X X X X X - - - X X X X X X @ @ j 0 0 n ` ",
"` q   @ X @ . . . . . . . . . . . . . . . . . . . . . . . . . . . . . . . . . . . . . . . . . . X X X . X . . . . . @ j - % q E ",
"E -     X . . . . . . . . . . . . . . . . . . . . . . . . . . . . . . . . . . . . . . . . . . . . . . . . . . . . .   X X   - L ",
"E j   X X . . . . . . . . . . . . X X X X X X X X X X X X X X X . . . . . . . . . . . . . . . . . . . . . . . . . . . X X X - C ",
"E j . . X . . . . . . . . . . . . . . . . . . . . . . . . . . . . . . . . . . . . . . . . . . . . . . . . . . . . . . . . . - C ",
"E -   . . . . . . . . . . . . . . . . . . . . . . . . . . . . . . . . . . . . . . . . . . . . . . . . . . . . . . . . . . . - C ",
"E -   . . . . . . . . . . . . . . . . . . . . . . . . . . . . . . . . . . . . . . . . . . . . . . . . . . . . . . . . . . . - C ",
"E -   . . . . . . . . . . . . . . . . . . . . . . . . . . . . . . . . . . . . . . . . . . . . . . . . . . . . . . . . . X . - C ",
"E -   . X . . . . . . . . . . . . . . . . . . . . . . . . . . . . . . . . . . . . . . . . . . . . . . . . . . . . . . . X . - C ",
"E j   X X . . . . . . . . . . . . . . . . . . . . . . . . . . . . . . . . . . . . . . . . . . . . . . . . . . . . . . . X   - E ",
"E j   X X . . . . . . . . . . . . . . . . . . . . . . . . . . . . . . . . . . . . . . . . . . . . . . . . . . . . . . X X   - E ",
"` j   X X .   . . . . . . . X . . . . . . . . . . . . . . . . . . . . . . . . . . . . . . . . . . . . . . . . . X . . X X   q E ",
"` j   X X .   . . . . . . . X . . . . . . . . . . . . . . . . . . . . . . . . . . . . . . . . . . . . . . . . . X . . X X   s E ",
"E -   @ . . . X . . . . . . . . . . . . . . . . . . . . . . . . . . . . . . . . . . . . . . . . . . . . . . . . X . . . X   - E ",
"E -   . . . . X . . . . . . . . . . . . . . . . . . . . . . . . . . . . . . . . . . . . . . . . . . . . . . . . X . . . X @ - E ",
"E -   . . . . X . . . . . . . . . . . . . . . . . . . . . . . . . . . . . . . . . . . . . . . . . . . . . . . . X . . . X . - E ",
"E -   . . . . X . . . . . . . . . . . . . . . . . . . . . . . . . . . . . . . . . . . . . . . . . . . . . . . . X . . . X . - E ",
"E -   . . . . X . . . . . . . . . . . . . . . . . . . . . . . . . . . . . . . . . . . . . . . . . . . . . . . . X . . . X . - E ",
"E -   . . . . X . . . . . . . . . . . . . . . . . . . . . . . . . . . . . . . . . . . . . . . . . . . . . . . . X . . . X . - E ",
"E -   . . . . X . . . . . . . . . . . . . . . . . . . . . . . . . . . . . . . . . . . . . . . . X X . . . . . . X . . . X . - E ",
"E -   . . . . X . . . . . . . . . . . . . . . . . . . . . . . . . . . . . . . . . . . . . . . . X X . . . . . . X . . . X . - E ",
"E -   . X . . . . . . . . . . . . . . . . . . . . . . . . . . . . . . . . . . . . . . . . . . . . . . . . . . . X . . . @ . - E ",
"E j   . X . . . . . . . . . . . . . . . . . . . . . . . . . . . . . . . . . . . . . . . . . . . . . . . . . . . X . . . @ . - E ",
"E -   . X . . . . . . . . . . . . . . . . . . . . . . . . . . . . . . . . . . . . . . . . . . . . . . . . . . . X . . . @ . - E ",
"E -   . X . . . . . . . . . . . . . . . . . . . . . . . . . . . . . . . . . . . . . . . . . . . . . . . . . . . X . . . @ . - E ",
"E -   . X . . . . . . . . . . . . . . . . . . . . . . . . . . . . . . . . . . . . . . . . . . . . . . . . . . . X . . . X . - E ",
"E -   . X . . . . . . . . . . . . . . . . . . . . . . . . . . . . . . . . . . . . . . . . . . . . . . . . . . . X . . . X . - E ",
"E -   . X . . . . . . . . . . . . . . . . . . . . . . . . . . . . . . . . . . . . . . . . . . . . . . . . . . . X . . . X . - E ",
"E -   . X . . . . . . . . . . . . . . . . . . . . . . . . . . . . . . . . . . . . . . . . . . . . . . . . . . . X . . . X . - E ",
"} j   . X . . . . . . . . . . . . . . . . . . . . . . . . . . . . . . . . . . . . . . . . . . . . . . . . . . . X . . . X . - E ",
"} j   . X . . . . . . . . . . . . . . . . . . . . . . . . . . . . . . . . . . . . . . . . . . . . . . . . . . . X . . . X . - E ",
"} j   . X . . . . . . . . . . . . . . . . . . . . . . . . . . . . . . . . . . . . . . . . . . . . . . . . . . . X . . . @ . - E ",
"} j   . X . . . . . . . . . . . . . . . . . . . . . . . . . . . . . . . . . . . . . . . . . . . . . . . . . . . X . . . X . - E ",
"} j   . X . . . . . . . . . . . . . . . . . . . . . . . . . . . . . . . . . . . . . . . . . . . . . . . . . . . X . . . @ . - E ",
"} j   . X . . . . . . . . . . . . . . . . . . . . . . . . . . . . . . . . . . . . . . . . . . . . . . . . . . . X . . . @ . - E ",
"} j   . X . . . . . . . . . . . . . . . . . . . . . . . . . . . . . . . . . . . . . . . . . . . . . . . . . . . X . . . @ . - E ",
"} s   . X . . . . . . . . . . . . . . . . . . . . . . . . . . . . . . . . . . . . . . . . . . . . . . . . . . . X . . . @ . - E ",
"X.@ @ X . . X . . . . . . . . . . . . . . . . . . . . . . . . . . . . . . . . . . . . . . . . . . . . . . . . . X . . . X @ - E ",
"X.@ @ X . . X . . . . . . . . . . . . . . . . . . . . . . . . . . . . . . . . . . . . . . . . . . . . . . . . . X . . . X @ - E ",
"X.@ @ X . . X . . . . . . . . . . . . . . . . . . . . . . . . . . . . . . . . . . . . . . . . . . . . . . . . . X . . . X . - E ",
"X.@ @ X . . X . . . . . . . . . . . . . . . . . . . . . . . . . . . . . . . . . . . . . . . . . . . . . . . . . X . . . X . - E ",
"X.@ @ X . . X . . . . . . . . . . . . . . . . . . . . . . . . . . . . . . . . . . . . . . . . . . . . . . . . . X . . . X . - E ",
"X.@ @ X . . X . . . . . . . . . . . . . . . . . . . . . . . . . . . . . . . . . . . . . . . . . . . . . . . . . X . . . X . - E ",
"X.@ @ X . . X . . . . . . . . . . . . . . . . . . . . . . . . . . . . . . . . . . . . . . . . . . . . . . . . . X . . . X . - E ",
"X.% @ j . . X . . . . . . . . . . . . . . . . . . . . . . . . . . . . . . . . . . . . . . . . . . . . . . . . . . . . . X   - E ",
";.% @ - . . X . . . . . . . X . . . . . . . . . . . . . . . . . . . . . . . . . . . . . . . . . . . . . . . . . . . . . X   - E ",
";.% . X . . X . . . . . . . . . . . . . . X . . . . . . . . . . . . . . . . . . . . . . . . . . . . . . . . . . . . . . X . - E ",
"+.@ . X . . X . . . . . . . . . . . . . . . . . . . . . . . . . . . . . . . . . . . . . . . . . . . . . . . . . X . . . X   - C ",
"+.@ @ X . . . . . . . . . . . . . . . . . . . . . . . . . . . . . . . . . . . . . . . . . . . . . . . . . . . . X . . . .   - C ",
"+.@ @ X . . . . . . . . . . . . . . . . . . . . . . . . . . . . . . . . . . . . . . . . . . . . . . . . . . . . X . . . .   X C ",
"+.@ @ X . . . . . . . . . . . . . . . . . . . . . . . . . . . . . . . . . . . . . . . . . . . . . . . . . . . . X . . . .   X C ",
"+.@ @ X . . . . . . . . . . . . . . . . . . . . . . . . . . . . . . . . . . . . . . . . . . . . . . . . . . . . X . . . . . X l ",
"+.@ @ X   . X . . . . . . . . . . . . . . . . . . . . . . . . . . . . . . . . . . . . . . . . . . . . . . . . . X . . . . . X l ",
"+.@ @ X   . . . . . . . . . . . . . . . . . . . . . . . . . . . . . . . . . . . . . . . . . . . . . . . . . . . X . . . .   X C ",
"1.j @ j . . X . . . . . . X X X X X X X X X X X X X X X X X X X X X X X X X X X X X X X X X X X . . . X X X X X X . . X X X j G ",
"1.s @ X . . . . . . . . . . . . . . . . . . . . . . . . . . . . . . . . . . . . . . . . . . . . . . . . . . . . X . . . . . j C ",
"1.r + %   . X   . . . . . X @ @ . . . . . . . . . . . . . . . . . . . . . . . . . . . . . . . . . . . . . . . . X . . . @   % C ",
"5.z 0 n @ X - . X X X X X X - - X X X X X X X X X X X X X X X X X X X X X X X X X X X X X X X X X X X X X . . . X . . @ % % n E ",
";.4 o 0     X   . . . .           .   .   .   @   .   .   .   @   .   .   .   @   .   .   .       .         . . .     @ e   0 L ",
"5.0 0 z e @ -   X X X X = - - % - X - @ - X - X % X % @ - X - X - X - @ - X - X % X % @ - X - - - X X X X X X X X @ @ % % r 0 ` ",
"q.;.` ;.` E X.C E E E E E E ` ` E E E E E E E E E E E E E E E E E E E E E E E E E E E E E E E E E E E E C C G G } C E } ` E ;.5."
};
