/* XPM */
static char *b9914b3df52448b0998462288ceefdc1IvWCvLqKpkEwVAKC[] = {
/* columns rows colors chars-per-pixel */
"64 64 217 2 ",
"   c #D51F83",
".  c #D51F84",
"X  c #D81E83",
"o  c #D81D84",
"O  c #D81F84",
"+  c #D91E85",
"@  c #D81F85",
"#  c #DA1F86",
"$  c #DC1D84",
"%  c #DD1E85",
"&  c #DC1F85",
"*  c #DE1D86",
"=  c #DD1E86",
"-  c #DC1F86",
";  c #DF1E87",
":  c #DE1F87",
">  c #E01D85",
",  c #E01D86",
"<  c #E11E87",
"1  c #E21F87",
"2  c #E01F88",
"3  c #E21F88",
"4  c #E41F88",
"5  c #E41F89",
"6  c #D02083",
"7  c #D42083",
"8  c #D32385",
"9  c #D32386",
"0  c #D52185",
"q  c #D62085",
"w  c #D72185",
"e  c #D62285",
"r  c #D72186",
"t  c #D62286",
"y  c #D62387",
"u  c #D72387",
"i  c #D42486",
"p  c #D42487",
"a  c #D62486",
"s  c #D92085",
"d  c #DA2085",
"f  c #D92086",
"g  c #DA2186",
"h  c #DB2186",
"j  c #DB2087",
"k  c #DA2187",
"l  c #D82286",
"z  c #D82287",
"x  c #DD2087",
"c  c #DF2087",
"v  c #DE2187",
"b  c #DC2287",
"n  c #D82487",
"m  c #D52588",
"M  c #D72488",
"N  c #D52789",
"B  c #D92388",
"V  c #DB2288",
"C  c #DC2188",
"Z  c #DF2088",
"A  c #DE2188",
"S  c #DC2388",
"D  c #DD2388",
"F  c #DD2289",
"G  c #DC2389",
"H  c #DF2288",
"J  c #DF2289",
"K  c #DE238A",
"L  c #D82488",
"P  c #D82589",
"I  c #D92589",
"U  c #DA2488",
"Y  c #DA2489",
"T  c #DB2589",
"R  c #D92789",
"E  c #DA2689",
"W  c #DB258A",
"Q  c #D9268A",
"!  c #DA268A",
"~  c #DB278A",
"^  c #DA278B",
"/  c #DB278B",
"(  c #DD2489",
")  c #DE2489",
"_  c #DD248A",
"`  c #DE258A",
"'  c #DF258A",
"]  c #DF248B",
"[  c #DE258B",
"{  c #DC268A",
"}  c #DC268B",
"|  c #DF268B",
" . c #DD278C",
".. c #DF268C",
"X. c #D7298A",
"o. c #D7298B",
"O. c #D8288A",
"+. c #D8288B",
"@. c #DA288A",
"#. c #DB298B",
"$. c #DC288B",
"%. c #D9298C",
"&. c #DB288C",
"*. c #DC298D",
"=. c #DD298D",
"-. c #DE288D",
";. c #DF298D",
":. c #DF298E",
">. c #E02087",
",. c #E02188",
"<. c #E12188",
"1. c #E12089",
"2. c #E02189",
"3. c #E32088",
"4. c #E32089",
"5. c #E12289",
"6. c #E22289",
"7. c #E2218A",
"8. c #E1228A",
"9. c #E0238A",
"0. c #E2238A",
"q. c #E3238A",
"w. c #E3228B",
"e. c #E2238B",
"r. c #E42189",
"t. c #E4218A",
"y. c #E5228A",
"u. c #E5228B",
"i. c #E1248B",
"p. c #E2258B",
"a. c #E4238C",
"s. c #E0258C",
"d. c #E3248C",
"f. c #E2258C",
"g. c #E0278C",
"h. c #E1278C",
"j. c #E1268D",
"k. c #E0278D",
"l. c #E3268C",
"z. c #E3268D",
"x. c #E7248C",
"c. c #E7248D",
"v. c #E5268E",
"b. c #E1288D",
"n. c #E1288E",
"m. c #E2298F",
"M. c #E02A8F",
"N. c #E72890",
"B. c #E13395",
"V. c #EA3197",
"C. c #E33799",
"Z. c #E53799",
"A. c #E7379A",
"S. c #E93398",
"D. c #EC3399",
"F. c #E83498",
"G. c #E83599",
"H. c #E93599",
"J. c #EA3499",
"K. c #EB3599",
"L. c #EA3699",
"P. c #EA379B",
"I. c #EB379B",
"U. c #ED3499",
"Y. c #EE359B",
"T. c #EC369B",
"R. c #ED379C",
"E. c #EF369C",
"W. c #E7399B",
"Q. c #E8389B",
"!. c #EC389B",
"~. c #E9399C",
"^. c #EB389C",
"/. c #EA3A9D",
"(. c #EB3B9D",
"). c #EC389C",
"_. c #ED399D",
"`. c #EE389D",
"'. c #EF399D",
"]. c #ED3B9D",
"[. c #EE3A9D",
"{. c #EF399E",
"}. c #EE3A9E",
"|. c #EF3B9E",
" X c #E83C9E",
".X c #EB3D9E",
"XX c #F0379C",
"oX c #F1389D",
"OX c #F2399E",
"+X c #F03A9F",
"@X c #F33A9F",
"#X c #EF3FA2",
"$X c #F23CA1",
"%X c #F33DA1",
"&X c #F23EA1",
"*X c #F33FA3",
"=X c #F63DA3",
"-X c #F43EA3",
";X c #F53FA4",
":X c #F73EA4",
">X c #F83FA5",
",X c #EF41A3",
"<X c #F141A3",
"1X c #F340A4",
"2X c #F440A4",
"3X c #F541A5",
"4X c #F640A5",
"5X c #F542A6",
"6X c #F244A6",
"7X c #F345A7",
"8X c #F444A6",
"9X c #F943A8",
"0X c #F54AAA",
"qX c #F64AAC",
"wX c #FE52B4",
"eX c #FF55B7",
"rX c #FF5EBE",
/* pixels */
"rX0X<X8X&X].@X@XU.U.U.K.K.K.K.K.K.K.K.K.K.K.K.K.R.R.U.U.U.U.U.U.].].].].].].].R.&X&X&X&X&X&X&X$X=X=X3X3X=X=X=X=X-X9X=X1X3X,X6XeX",
".XX.8 R e   g O ' ' ' ' ' R R ' ' ' ' ' ' ' '  . . . . . . . . .g.;.g.;.g.;.g.;.g e g e g e O e g e e g g g g g g ' C e R 8 m C.",
"(.@.i @.R R g.' g g g g g e e e g g O g O g O g g g g g C g g g O g O g O g O O S ' S ' S ' S ' R R R ' ' S S S S g.R R R i @.W.",
"].@.i $.R S g.p.S S S S S S S S S S <.S <.S <.S S S S S S S S S <.S <.S <.S <.S p.S p.' g. .g.' ' ' ' S S <.<.<.S g.' C R m %.(.",
"!.n 7 R O X v % v v v v v v v v S S <.<.<.S <.S S S S S S S S S <.<.<.<.<.<.<.<.% v : v : v % v O O O % % % % % % p.S g C e R K.",
"&X;.R b.' v <.<.>.>.>.v v v v v S S S S S : S : % % % % % % % % <.<.<.<.<.<.<.<.w.g.g.g.g.x.g.w.g.p.p.<.w.w.w.w.<.N.g.' b. .;.].",
"XX' O ' % % >.> y.y.y.<.<.<.<.<.<.<.<.<.<.<.<.2 <.<.<.<.<.<.<.<.<.<.<.<.<.<.<.<.% % : : 2 % % % : : % % % > 2 2 > <.S % S g S K.",
"@X' g g.<.<.x.y.<.<.<.<.<.<.<.<.2 2 2 2 2 2 2 2 2 2 2 2 2 2 2 2 2 2 2 2 2 2 2 2 <.<.<.<.<.<.<.<.<.<.<.<.y.y.y.y.2 x.<.S p.S  .U.",
"@X' g g.<.>.y.> 4 4 <.<.<.<.<.<.<.<.y.y.<.<.<.<.<.<.<.<.2 2 <.<.<.<.<.<.<.<.y.4 <.<.y.<.<.<.<.<.<.<.<.<.<.<.4 4 2 y.2 <.<.O S R.",
"@X' g g.<.>.y.> 4 4 <.<.<.<.<.<.<.<.<.y.<.<.<.<.y.<.<.<.2 2 <.<.<.<.<.<.<.<.y.y.<.<.<.<.<.<.<.<.<.<.<.<.<.<.4 4 2 y.> <.<.O S R.",
"@X' g g.<.>.y.> y.<.<.<.<.<.<.<.2 2 <.<.<.<.<.<.<.<.<.<.<.<.<.<.<.<.<.<.<.<.<.<.<.<.<.<.<.<.<.<.<.<.<.<.<.<.<.<.2 y.% <.<.O S R.",
"@X' g g.S v <.> <.<.<.<.<.<.<.<.2 2 <.<.<.<.<.<.<.<.<.<.<.<.<.<.<.<.<.<.<.<.<.<.2 <.<.<.<.<.<.<.<.<.<.<.<.<.<.<.2 <.% S S O S R.",
"].' g g.S v <.>.<.<.<.<.<.<.<.S <.<.<.<.<.<.<.<.<.<.<.<.<.<.<.<.<.<.<.<.<.<.<.<.<.<.<.<.<.<.<.<.<.S <.<.<.<.<.<.2 <.% S ' O R ].",
"].R g g.S v <.>.<.<.<.<.<.S S S <.<.<.<.<.<.<.<.<.<.<.<.<.<.<.<.<.<.<.<.<.<.<.<.<.<.<.<.<.<.<.<.S S <.<.<.<.<.<.2 <.v S ' e R ].",
"].R g g.S v <.v <.<.<.<.<.S S S S S S S S S S S <.<.S S S S S S S S S S <.<.S S S S S S S S S S S S S S <.<.<.<.S <.S S ' e R ].",
"].R g g.S v <.v <.<.<.<.<.S S S S S S S S S S <.<.<.S S S S S S S S S <.<.<.S S S S S S S S S S S S S S <.<.<.<.S <.v S ' e R ].",
"R.R O  .S : <.2 <.<.<.<.<.S S S <.<.<.<.<.<.<.S <.<.<.<.S <.<.<.<.<.<.<.<.<.<.<.<.<.<.<.S <.<.S S S <.<.<.<.<.<.2 <.% S ' e R R.",
"R.R O ' S : <.2 <.<.<.<.<.<.S S <.<.<.<.<.<.<.<.<.<.<.<.<.<.<.<.<.<.<.<.<.<.<.<.<.<.S <.<.<.<.<.S S <.<.<.<.<.<.2 <.% S ' O R R.",
"R.R O ' S % <.2 <.<.<.<.<.<.S S <.<.<.<.<.<.<.<.<.<.<.<.<.<.<.<.<.<.<.<.<.<.<.<.<.<.<.<.<.<.<.<.S S <.<.<.<.2 <.2 <.% S ' O C R.",
"R.R O  .S % <.2 <.<.<.<.<.<.S <.<.<.<.<.<.<.<.<.<.<.<.<.<.<.<.<.S <.<.<.<.S <.<.<.<.<.<.<.<.<.<.S S <.<.<.<.2 2 2 <.% S ' O R R.",
"R.R O ' S % <.2 <.<.<.<.<.<.<.<.<.<.<.<.<.<.S <.<.<.<.<.<.<.<.<.<.<.<.<.<.<.<.<.<.<.<.<.<.<.<.<.S S <.<.<.<.<.<.2 <.: S ' O C R.",
"R.R O ' S % <.2 <.<.<.<.<.<.<.<.<.<.<.<.<.<.<.<.<.<.<.<.S <.<.<.<.<.<.<.<.<.<.<.<.<.<.<.<.<.<.<.S S <.<.<.<.<.<.2 <.: S S O C R.",
"R.C O S S % <.2 y.y.<.<.<.<.S S <.<.<.<.<.<.<.<.<.<.S <.<.<.<.<.<.<.<.<.<.<.<.S <.<.S <.<.<.<.<.<.<.<.<.<.<.y.y.2 <.: S ' O R R.",
"R.C O ' S % <.2 4 y.<.<.<.<.S S <.<.<.<.<.<.<.<.<.<.<.<.<.<.<.<.<.S <.<.<.<.<.<.<.<.<.<.<.<.S <.<.<.<.<.<.<.y.<.2 <.% S ' O R R.",
"].' g g.S S <.2 <.<.2 2 <.<.S S <.S <.<.<.<.<.<.<.<.<.<.<.<.S <.<.<.<.<.<.<.<.<.<.<.<.<.<.<.<.<.<.S <.<.<.<.<.<.2 <.: S ' O R R.",
"].' g g.S S <.2 <.<.2 2 <.<.S S <.<.<.<.<.S <.<.S <.<.<.<.<.<.<.<.<.<.<.<.S <.<.<.<.<.<.<.<.<.<.S S <.<.<.<.<.<.2 <.: <.' O R R.",
"].' g g.<.S <.2 y.<.<.<.<.<.S S <.<.<.<.<.<.<.<.<.<.<.<.<.<.<.<.<.<.<.S <.<.<.<.<.<.<.<.<.<.<.<.S S <.<.<.<.<.<.2 <.: S  .O R R.",
"].' C g.<.S <.2 y.y.<.<.<.<.S S <.<.<.<.<.<.<.<.<.<.<.<.<.<.<.<.<.<.<.<.<.<.<.<.<.S <.<.<.<.<.<.S S <.<.<.<.<.<.2 <.: <.' O R R.",
"@X' g g.<.S w.2 <.<.<.<.<.<.S S <.<.<.<.<.<.<.<.<.<.S <.<.<.<.S <.<.<.<.<.<.<.<.<.<.<.<.<.<.<.<.S S <.<.<.<.y.y.2 <.% S ' O R R.",
"@X' g g.<.<.w.2 <.<.<.<.<.<.S S <.<.<.<.<.<.<.<.<.<.<.<.<.<.<.<.<.<.<.<.<.<.<.<.<.<.<.<.<.<.<.<.S S <.<.<.<.<.y.2 <.% S ' O R R.",
"@X' g g.S S w.2 <.<.<.<.<.<.S S <.<.<.<.<.S <.<.<.<.<.<.<.<.<.<.<.<.<.<.<.<.<.<.<.<.<.<.<.<.<.<.S S <.<.2 2 <.<.2 <.% S ' O R R.",
"].' g g.S S <.2 <.<.<.<.<.<.S S <.<.<.S <.<.<.<.<.<.<.<.<.<.<.<.<.<.<.S <.<.<.<.S <.<.<.<.<.<.<.S S <.<.2 2 <.<.2 <.% S ' O R R.",
"@X' g g.S : w.<.<.<.<.2 <.<.S S S <.<.<.<.<.<.<.<.<.<.<.<.<.<.S <.<.<.<.<.<.<.<.<.<.<.<.<.<.S <.S S <.<.<.<.<.<.2 <.: S ' O R R.",
"@X' g  .S : w.<.y.<.<.<.<.<.S S <.<.<.<.<.<.<.<.<.<.<.<.<.<.<.<.<.<.<.<.<.<.<.<.S <.<.<.<.<.<.<.S <.<.<.<.<.<.<.2 <.: S ' O C R.",
"@XR g  .S : w.<.<.<.<.<.<.<.S S <.<.<.<.<.<.<.S <.<.<.<.<.<.<.<.<.<.<.<.<.<.S <.<.<.<.<.<.<.<.<.<.<.<.<.<.<.<.<.2 <.: <.' O R R.",
"@XR g  .S : <.<.y.<.<.<.<.<.S S <.<.<.<.<.<.<.<.<.S <.<.<.<.<.<.<.<.<.<.<.<.<.<.<.<.<.<.<.<.<.<.<.S <.<.<.<.<.<.2 <.: <.S O C R.",
"].' g  .S % <.<.<.<.<.<.<.<.<.<.<.<.<.<.<.<.<.<.<.<.<.<.<.<.S <.S <.<.<.<.S <.<.<.<.S <.<.<.<.S S S <.<.<.<.<.<.2 <.% S  .O R R.",
"@X' g g.S % <.<.<.<.<.<.<.<.<.<.S <.<.<.<.S <.<.<.<.S <.<.<.<.<.<.<.<.<.<.<.<.<.<.<.<.<.<.<.<.<.S S <.<.<.2 2 <.2 <.% S ' O R R.",
"@X' g g.S % <.<.<.<.<.<.<.<.<.S <.<.<.<.<.<.<.<.<.<.<.<.<.<.<.<.<.<.<.<.<.<.<.<.<.<.<.<.<.<.<.<.S S <.<.<.<.<.<.2 <.% S  .O R R.",
"@X' g g.S % <.2 <.<.<.<.<.<.S S <.<.<.<.<.<.<.<.<.<.<.<.<.<.<.<.<.<.<.<.<.<.<.<.<.<.<.<.<.<.<.<.<.<.<.<.<.<.<.<.2 <.% S g.O R R.",
"@X' g g.S % <.<.<.<.2 2 <.<.S S <.<.<.<.<.<.<.<.<.<.<.<.<.<.<.<.<.<.<.<.<.<.<.<.<.<.<.<.<.<.<.<.S S <.<.<.<.<.<.2 <.% S ' O R R.",
"@X' g g.S % <.<.<.<.<.<.<.<.S S <.<.<.<.<.<.<.<.<.<.<.<.<.<.<.<.<.<.<.<.<.<.<.<.<.<.<.<.<.<.<.<.S S <.<.<.<.<.<.2 <.% S ' O R R.",
"@X' g g.S % w.<.<.y.<.<.<.<.S S S <.<.<.<.S <.<.<.<.S <.<.<.<.<.<.S <.<.S <.<.<.<.S <.<.<.<.S <.<.<.<.<.<.<.y.<.2 <.% S ' O C R.",
"@X' g g.S : w.<.<.y.<.<.<.<.S S <.<.<.<.<.<.<.<.<.<.<.<.<.<.<.<.<.<.<.<.<.<.<.<.<.<.<.<.<.<.<.<.<.<.<.<.<.<.<.<.2 <.% S ' O R R.",
"@X' g  .S : w.<.<.y.<.<.<.<.<.<.<.<.<.<.<.<.<.<.<.S <.<.<.<.<.<.<.<.<.<.<.S <.<.<.<.<.<.<.<.<.<.S S <.<.<.<.y.y.2 <.: S S O C R.",
"@X' g  .S % w.<.<.<.<.<.<.<.<.<.<.<.<.<.<.<.<.S <.<.<.<.<.<.<.<.<.<.<.<.<.<.<.<.<.<.<.<.<.<.<.<.S S <.<.<.<.<.y.2 <.: S ' O C R.",
"].R g  .S % w.<.<.<.<.<.<.<.<.S <.<.<.<.<.<.<.<.<.<.<.<.<.<.<.<.S <.<.<.<.<.<.<.<.<.<.<.<.<.<.S S S <.<.<.<.y.y.2 <.: S ' O R R.",
"].R g  .S % <.<.<.<.<.<.<.S S S S <.<.<.<.<.<.<.<.<.<.<.<.<.<.<.<.<.<.<.<.<.<.<.<.<.<.<.<.<.<.S S S <.<.<.<.<.<.2 <.% S ' e R R.",
"&XR R S O g.% <.<.<.<.<.<.S S S S S <.<.<.S S S S S S S S S <.<.S S S S S S S S S S S S S S <.<.<.S S S <.<.<.<.S <.S S ' e R ].",
"&XR R S O g.% <.<.<.<.<.<.S S S S S <.<.S S S S S S S S S S <.<.S S S S S S S S S S S S S S <.<.S S S S <.<.<.<.<.<.S S ' e R R.",
"&XR R S O g.% <.<.<.<.<.<.S S S <.<.<.<.<.<.<.<.<.<.<.<.<.<.<.<.<.<.<.<.<.<.<.<.<.<.<.<.<.<.<.<.S S <.<.<.<.<.<.2 <.v S ' e R ].",
"-XC ' S % g.% <.<.<.<.<.<.<.<.S <.<.<.<.<.<.<.<.<.<.<.<.<.<.<.<.<.<.<.<.<.<.<.<.<.<.<.<.<.<.<.<.<.S <.<.<.<.<.<.2 <.% S ' O C R.",
"-XC ' S % g.% y.<.<.<.<.<.<.<.<.<.<.<.<.<.<.<.<.<.<.<.<.<.<.2 <.<.<.<.<.<.<.<.<.<.<.<.<.<.<.2 <.<.<.<.<.<.<.<.<.2 <.% S ' O S R.",
"-XC S S % a.> y.<.<.<.<.<.<.<.<.<.<.<.<.<.<.<.<.<.<.<.<.<.<.<.<.<.<.<.<.<.<.<.<.<.<.<.<.<.<.<.<.<.<.<.<.<.<.<.<.2 y.% <.p.O S R.",
"-XC S S % a.> y.4 4 <.<.<.<.<.<.<.y.<.<.<.<.<.<.<.<.<.y.<.<.2 <.y.y.<.<.<.<.<.<.<.<.<.<.<.<.2 <.<.<.<.<.<.<.4 4 2 y.% <.p.O S R.",
"=XC S S % a.> y.4 4 <.<.<.<.<.<.2 y.<.<.<.<.<.<.<.<.<.<.<.<.2 4 4 4 <.<.<.<.<.<.<.<.<.y.<.<.2 2 <.<.<.<.y.<.4 4 2 y.% <.p.O S R.",
">XC S S % a.> y.2 2 2 2 2 2 S : 2 2 2 2 2 2 2 2 2 2 2 2 2 2 2 2 2 2 2 2 2 2 2 2 2 2 2 2 2 2 2 2 S S 2 2 2 2 2 2 2 y.% <.p.O C U.",
">XS ' S S x.2 a.<.<.<.<.<.<.<.<.<.<.<.<.<.<.<.<.2 2 <.2 <.<.<.<.2 <.<.<.<.<.<.<.2 2 <.2 <.<.<.<.<.<.<.<.<.<.<.<.<.<.S <.g.g S R.",
"=XC R S g g.% <.2 2 2 S S S S S S S S S S S S S S S S S S S S S S S S S S S S S S S S S S S S S S S S S S 2 2 2 2 <.v S ' . C K.",
"3XR R R C g.S <.<.<.<.S S S S S S S <.S <.S <.S <.S <.S <.S <.S <.S <.S <.S <.S <.S <.S <.S <.S S S S S S <.<.<.<.p.S S  .e R (.",
"3XR %.R R b.S g.<.<.<.S S ' ' ' S S <.S <.S <.S <.S <.S <.S <.S <.S <.S <.S <.S <.S <.S <.S <.S S ' ' S S <.<.<.<.g.S R ;.e R (.",
"#X8 m e e ' O S O O O g g e e e g g O O O g O g O g O g O g O g O g O g O g O g O g O g O g O g e e e g g O O O O C e e R 6 8 A.",
"6XX.%.R R b.S  .' ' ' ' ' R R  .' ' ' ' ' ' '  .' ' ' ' ' ' '  .' ' ' ' ' ' '  .' ' ' ' ' ' '  .' R ' ' ' ' ' ' '  .R R ;.i X..X",
"wXC.Q.A.K.].V.U.D.D.D.K.K.K.K.K.J.J.J.J.K.K.K.K.K.K.J.K.K.K.K.K.J.J.J.K.K.K.K.K.K.K.J.K.K.K.K.K.K.K.K.K.D.D.D.D.D.U.J.K.K.B.A.qX"
};
