/* XPM */
static char *_2e923b938fa4884d751098d8997c2f6IdSl4WruSfTVPDR4[] = {
/* columns rows colors chars-per-pixel */
"64 64 112 2 ",
"   c #D63E05",
".  c #DB3E05",
"X  c #D53E0A",
"o  c #DC3F08",
"O  c #E23F06",
"+  c #E23E08",
"@  c #DE4105",
"#  c #D5410C",
"$  c #DD420A",
"%  c #D74511",
"&  c #DD4511",
"*  c #E04005",
"=  c #E04109",
"-  c #E14009",
";  c #E34009",
":  c #E14208",
">  c #E24208",
",  c #E24309",
"<  c #E0410A",
"1  c #E2410A",
"2  c #E1420A",
"3  c #E1420B",
"4  c #E3420B",
"5  c #E2430B",
"6  c #E44108",
"7  c #E4410A",
"8  c #E5420B",
"9  c #E7420A",
"0  c #E1450A",
"q  c #E0400C",
"w  c #E0430C",
"e  c #E0430E",
"r  c #E1450C",
"t  c #E1440D",
"y  c #E0450D",
"u  c #E1440F",
"i  c #E0450F",
"p  c #E1460E",
"a  c #E0470E",
"s  c #E2470F",
"d  c #E5440D",
"f  c #E2410A",
"g  c #E1480F",
"h  c #E04411",
"j  c #EC5217",
"k  c #E5541D",
"l  c #EC531A",
"z  c #EB571B",
"x  c #EF5519",
"c  c #ED541A",
"v  c #EE551B",
"b  c #ED531F",
"n  c #EE521F",
"m  c #E9541C",
"M  c #EB541D",
"N  c #EA551D",
"B  c #EB561E",
"V  c #EC551C",
"C  c #EE551C",
"Z  c #EF561C",
"A  c #EC551E",
"S  c #EE571E",
"D  c #EC541B",
"F  c #F1571B",
"G  c #F0571D",
"H  c #F0571E",
"J  c #F1581E",
"K  c #E65622",
"L  c #E45420",
"P  c #EA5721",
"I  c #E85722",
"U  c #EF5521",
"Y  c #EE5720",
"T  c #ED5722",
"R  c #EF5725",
"E  c #EA5521",
"W  c #ED5820",
"Q  c #EB5824",
"!  c #EB5926",
"~  c #EB5A23",
"^  c #EE5C29",
"/  c #EF5C29",
"(  c #F05620",
")  c #F15723",
"_  c #F05624",
"`  c #F05920",
"'  c #F25B22",
"]  c #F35925",
"[  c #F15A25",
"{  c #F25826",
"}  c #F35C25",
"|  c #F35E26",
" . c #F45D26",
".. c #F45B26",
"X. c #F25A28",
"o. c #F75B28",
"O. c #F15E2B",
"+. c #F65C28",
"@. c #F45C2A",
"#. c #F75D2B",
"$. c #F45E2B",
"%. c #F15F2C",
"&. c #F55D2B",
"*. c #F95F2D",
"=. c #F4612E",
"-. c #F7612F",
";. c #F2602D",
":. c #F66632",
">. c #F86931",
",. c #FF6F3B",
"<. c #FF733F",
"1. c #FF7A46",
/* pixels */
"1.:.O.=.X.R { _ n n n n A A N N l l l l l l l l A A A A A A A A T T T ( ( ( T T { ......{ { { { } | } } #.#.o.o.#.*.#.$.:./ %.<.",
"! % # % X X X X $ w w $ $ $ $ $ $ $ $ $ $ $ $ $ $ $ $ $ $ $ $ $ $ & & h h h & & X X X X X X X X $ $ # X X X X X X $ X X % X # L ",
"! % # % $ $ h $ X o X     $ $ $                 $ $ $ $ $ $ $ $ X X X X X X X X $ $ $ $ $ $ $ $ $ $ $ $ $ $ $ $ $ $ $ $ % # % I ",
"T $ # $ $ $ u w o $ $ @ $ $ $ $ $ $ $ $ $ $ $ $ $ $ $ $ $ $ $ $ $ $ $ $ $ $ $ $ w $ w $ $ $ $ $ $ $ $ $ $ $ 1 $ w w $ $ & # $ I ",
"A $   $     o o o o o o o @ @ @ @ o o o o o o o $ $ $ $ 1 $ $ $ 1 $ 1 $ 1 $ 1 $ o o o   o   o o . . . . o o o o o $     $   $ N ",
"' u $ u $ o 1 + O . O . . . . . o o o o o o o o o o o o + o o o + @ O @ O @ O @ 1 1 1 1 1 1 9 1 * * * * 1 1 9 1 9 d 1 u u $ $ ' ",
"A $   $ o . O . O O O * * * * * 1 1 1 1 1 1 1 1 1 1 1 1 1 1 1 1 * * * * * * * * O . O . O . O . . . . . O O O O O O . o $   $ c ",
"J $   0 * * 9 6 O O O O O . . . O + + + + + + + + + + + + + + O O O O O O O O O 6 6 * * * * 6 6 * * * * * * O O O 9 O * 1   $ A ",
"F $   0 * . 6 O O O O O * * * * O + + + + + + + + + + + + + + O O O O O O O O O O O O O O O O O * * * * O O O O O * O @ 1 . @ c ",
"F $   0 * . 6 O O O O O * * * * O + + + + + + + + + + + + + + O O O O O O O O O O O O O O O O O * * * * O O O O O * O @ 1 . @ c ",
"G $   0 * o 6 O O O O O * * * * O O O O O O O O O O O O O O O O O O O O O O O O O O O O O O O O * * * * O O O O O * O @ 1   $ c ",
"G $   u $ o 9 O O O O * * * * * * O O O O O O O O O O O O O O O O O O O O O O O O O O O O O O * * * * * * O O O O 6 . @ $   $ c ",
"A $   u $ o 1 O O O O * * @ @ @ * * * * * * * * * * * * * * * * * * O * * * * * * * * * * * * * @ @ @ * * O O O O 1 o @ $   $ A ",
"A $ $ u $ @ 1 o O O * * @ @ @ @ @ * * * * * * * * * * * * * * * * * O * * * * * * * * * * * * @ @ @ @ @ * * O * o 1 o @ $   $ A ",
"W $ $ u $ o 1 o O * * * @ @ @ @ @ @ @ @ @ @ @ @ @ @ @ @ @ @ @ @ @ $ $ $ $ $ $ $ $ $ @ @ $ $ $ @ @ @ @ @ * * + + o 1 o $ $   $ N ",
"T $ X u $ o 1 o O O * * @ @ @ @ @ @ * @ * @ * @ * @ * @ * @ * @ * $ + $ + $ + $ + $ + @ + $ + @ @ @ @ @ * * + + o 1 o $ $   $ N ",
"A $   $ $ o 1 O + + O * * @ @ @ * * O * O * O * O * O * O * O * O * O * O * O * O * O * O * O * @ @ @ * * O + + O 1 o $ $   $ A ",
"A $   $ $ o 1 O + + O O * * @ @ O O O O O O O O O O O O O O O O O O O O O O O O O O O O O O O * * @ * * O O + + O 1 o $ $   $ A ",
"A $   $ $ o 1 O + + O O * * @ @ O O O O O O O O O O O O O O O O O O O O O O O O O O O O O O O * * @ * * O O + + O 1 o $ $   $ A ",
"A $   $ $ o 1 O + + O O * * @ @ O O O O O O O O O O O O O O O O O O O O O O O O O O O O O O O * * @ * * O O + + O 1 o $ $   $ A ",
"A $   $ $ o 1 O + + O O * * @ @ O O O O O O O O O O O O O O O O O O O O O O O O O O O O O O O * * @ * * O O + + O 1 o $ $   $ A ",
"A $   $ $ o 1 O + + O O * * @ @ O O O O O O O O O O O O O O O O O O O O O O O O O O O O O O O * * @ * * O O + + O + o $ $   $ A ",
"A $   $ $ o 1 O + + O O * * @ @ O O O O O O O O O O O O O O O O O O O O O O O O O O O O O O O * * @ * * O O + + O 1 o $ $   $ A ",
"A $   $ $ o 1 O + + O O * * @ @ O O O O O O O O O O O O O O O O O O O O O O O O O O O O O O O * * @ * * O O + + O 1 o $ $   $ A ",
"G $   u $ o 9 O + + O O * * @ @ O O O O O O O O O O O O O O O O O O O O O O O O O O O O O O O * * @ * * O O + + O + o $ $   $ A ",
"G $   u $ o 9 O + + O O * * @ @ O O O O O O O O O O O O O O O O O O O O O O O O O O O O O O O * * @ * * O O + + O 1 o o $   $ A ",
"G $   u $ o 9 O + + O O * * @ @ O O O O O O O O O O O O O O O O O O O O O O O O O O O O O O O * * @ * * O O + + O 1 o $ $   $ A ",
"G $   u $ o 9 O + + O O * * @ @ O O O O O O O O O O O O O O O O O O O O O O O O O O O O O O O * * @ * * O O + + O 1 o o $   $ A ",
"G $   u $ o 9 O + + O O * * @ @ O O O O O O O O O O O O O O O O O O O O O O O O O O O O O O O * * @ * * O O + + O 1 o $ $   $ A ",
"G $   $ $ o 9 O + + O O * * @ @ O O O O O O O O O O O O O O O O O O O O O O O O O O O O O O O * * @ * * O O + + O 1 o $ $   $ A ",
"G $   u $ o 9 O + + O O * * @ @ O O O O O O O O O O O O O O O O O O O O O O O O O O O O O O O * * @ * * O O + + O 1 o $ $   $ A ",
"( $   u $ o 9 O + O O O * * @ @ O O O O O O O O O O O O O O O O O O O O O O O O O O O O O O O * * @ * * O O + + O 1 o $ $   $ A ",
"( $ X $ o o 6 O O O O O * * @ @ O O O O O O O O O O O O O O O O O O O O O O O O O O O O O O O * * @ * * O O + + O 1 o $ $   $ A ",
"( $ X $ o . 6 O O O O O * * @ @ O O O O O O O O O O O O O O O O O O O O O O O O O O O O O O O * * @ * * O O + + O 1 o $ $   $ A ",
"_ & X $ o . 6 O O O O O * * @ @ O O O O O O O O O O O O O O O O O O O O O O O O O O O O O O O * * @ * * O O + + O 1 o $ $   $ A ",
"_ $ X $ o . 9 O O O O O * * $ $ O O O O O O O O O O O O O O O O O O O O O O O O O O O O O O O * * @ * * O O + + O 1 o $ $   $ A ",
"{ & X $ o o 9 O O O O O * * $ $ O O O O O O O O O O O O O O O O O O O O O O O O O O O O O O O * * @ * * O O + + O 1 o $ $   $ A ",
"( & X $ o o 6 O O O O O * * $ $ O O O O O O O O O O O O O O O O O O O O O O O O O O O O O O O * * @ * * O O + + O + o $ $   $ A ",
"( $ X u o o 6 O O O O O * * $ $ O O O O O O O O O O O O O O O O O O O O O O O O O O O O O O O * * @ * * O O + + O + o $ $   $ A ",
"' $ X u o o 6 O O O O O * * $ $ O O O O O O O O O O O O O O O O O O O O O O O O O O O O O O O * * @ * * O O + + O + o $ $   $ A ",
"( $ X $ o o 6 O O O O O * * @ @ O O O O O O O O O O O O O O O O O O O O O O O O O O O O O O O * * @ * * O O + + O 1 o $ $   $ A ",
"( $ X $ o . 6 O O O O O * * @ @ O O O O O O O O O O O O O O O O O O O O O O O O O O O O O O O * * @ * * O O + + O 1 o $ $   $ A ",
"( $   $ o . 9 O O O O O * * @ @ O O O O O O O O O O O O O O O O O O O O O O O O O O O O O O O * * @ * * O O + + O 1 o $ $   $ A ",
"( $   $ o . 9 O O O O O * * $ $ O O O O O O O O O O O O O O O O O O O O O O O O O O O O O O O * * @ * * O O + + O 1 o $ $   $ A ",
"_ $ X u o . 6 O O O O O * * $ $ O O O O O O O O O O O O O O O O O O O O O O O O O O O O O O O * * @ * * O O + + O + o $ $   $ A ",
"_ & X u o . 6 O O O O O * * $ $ O O O O O O O O O O O O O O O O O O O O O O O O O O O O O O O * * @ * * O O + + O + o $ $   $ A ",
"( & X $ o . 6 O O O O O * * $ $ O O O O O O O O O O O O O O O O O O O O O O O O O O O O O O O * * @ * * O O + + O 1 o $ $   $ A ",
"( $ X u @ . * O O O O * * @ $ @ * * O * O * O * O * O * O * O * O * O * O * O * O * O * O * O * @ @ @ * * O O + O 1 o $ $   $ A ",
"} $ $ $ . > . * * * * * @ @ @ @ @ @ * @ * @ * @ * @ * @ * @ * @ * @ * @ * @ * @ * @ * @ * @ * @ @ @ @ @ * * * * o * . @ $   $ l ",
"| $ $ $ . @ . @ * * * * @ @ @ @ @ @ @ @ @ @ @ @ @ @ @ @ @ @ @ @ @ @ @ @ @ @ @ @ @ @ @ @ @ @ @ @ @ @ @ @ * * * * o * . @ $   $ l ",
"} $ $ $ . > . * * * * * @ @ @ @ @ * * * * * * * * * * * * * * * * * * * * * * * * * * * * * * @ @ @ @ @ * * O * o * o @ $   $ c ",
"| $ $ $ o * . * * * * * * @ @ @ * * * * * * * * * * * * * * * * * * * * * * * * * * * * * * * * @ @ @ * * O O O O * o o $   @ c ",
"..$ $ @ o * . * O O O * @ * * * * O O O O O O O O O O O O O O O O O O O O O O O O O O O O O O * * * * * O O O O O * o $ $   $ A ",
"..X $ $ o 1 O * O O O O O * * * O O O O O O O O O O O O O O O O O O O O O O O O O O O O O O O O * * * O O O O O O 6 O $ 1   $ A ",
"..X $ $ o 1 O O O O O O O O + + + + + + + + + + + + + + + + + + + + + + + + + + + + + + + + + O * * O O O O O O O 1 O $ 1   $ A ",
"..X $ $ o 1 O O O O O O O O + + + + + + + + + + + + + + + + + + + + + + + + + + + + + + + + + + * * O O O O O O O 1 O $ 1   $ A ",
"#.X $ $ o 1 O O O O O O O + + + + + + + + + + + + + + + + + + + + + + + + + + + + + + + + + + + * * * O O O + + + 9 + $ w   $ A ",
"#.$ $ $ o d O 9 O * O * 1 1 1 1 1 1 1 1 1 1 1 1 9 1 1 1 1 1 1 1 1 1 1 1 1 1 1 1 9 1 1 1 1 1 1 1 * * * * 6 6 + 9 + 9 + 1 u X $ T ",
"#.$ $ $   1 o * O . O o o o o o o o o o o o o o o o o o o o o o o o o o o o o o o o o o o o o o o o o o o o O o + 1 o $ $   $ A ",
"#.$ $ $ $ u o 1 O @ o o o @ o o o o o o o o o o o o o o o o o o o o o o o o o o o o o o o o o o @ @ @ o o o o o 1 w $ $ $ X $ A ",
"$.% % $ $ u $ 0 * @ @ @ $ $ $ $ $ $ $ $ $ $ $ $ $ $ $ $ $ $ $ $ $ $ $ $ $ $ $ $ $ $ $ $ $ $ $ $ $ $ $ $ $ $ $ $ 1 u $ $ & # $ ~ ",
"/ # # #   $   @ . . .       X X                                                                                   $ X # $ X # k ",
";.% % % $ g $ $ @ @ $ $ $ $ $ $ $ $ $ $ $ $ $ $ $ $ $ $ $ $ $ $ $ $ $ $ $ $ $ $ $ $ $ $ $ $ $ $ $ $ $ $ $ $ $ $ $ $ $ $ & # % ~ ",
",.L I k m A j c j j l l D D N N l l l l l l l l l l l l l l l l l l l l l l l l l l l l l l l D l l l l c c l l n A D N I k k >."
};
