/* XPM */
static char *result[] = {
/* columns rows colors chars-per-pixel */
"64 64 249 2 ",
"   c #060809",
".  c #0B0A0B",
"X  c #11100E",
"o  c #0A0D12",
"O  c #0C1318",
"+  c #131214",
"@  c #13151A",
"#  c #16191A",
"$  c #1B1C1B",
"%  c #211D1A",
"&  c #1C211E",
"*  c #24231D",
"=  c #161C27",
"-  c #1B1D23",
";  c #141C2F",
":  c #231F22",
">  c #1C2329",
",  c #0E2039",
"<  c #1B2333",
"1  c #192639",
"2  c #232324",
"3  c #262828",
"4  c #2B2C2B",
"5  c #312D2A",
"6  c #2B332D",
"7  c #33332B",
"8  c #252C37",
"9  c #2D3335",
"0  c #29333D",
"q  c #333534",
"w  c #383B39",
"e  c #413E3A",
"r  c #3C413C",
"t  c #43443D",
"y  c #1A2A44",
"u  c #1E334A",
"i  c #143255",
"p  c #252E43",
"a  c #233143",
"s  c #2A3343",
"d  c #24344C",
"f  c #2B354B",
"g  c #2B3A48",
"h  c #333B44",
"j  c #373A46",
"k  c #333D4C",
"l  c #263857",
"z  c #2C3C54",
"x  c #313D53",
"c  c #343F5C",
"v  c #1A3E62",
"b  c #283D62",
"n  c #533B4E",
"m  c #2E4049",
"M  c #3A4445",
"N  c #35424D",
"B  c #3C434C",
"V  c #294358",
"C  c #2D425B",
"Z  c #344354",
"A  c #3B4554",
"S  c #3D4A54",
"D  c #34445C",
"F  c #37485C",
"G  c #3C4B5C",
"H  c #1D4A75",
"J  c #2C4464",
"K  c #2B456B",
"L  c #29486A",
"P  c #334563",
"I  c #354967",
"U  c #3B4D63",
"Y  c #334B6B",
"T  c #3C5265",
"R  c #3D536B",
"E  c #39566B",
"W  c #2B4B74",
"Q  c #364D72",
"!  c #2C5479",
"~  c #345273",
"^  c #3A5574",
"/  c #385878",
"(  c #3C5B7C",
")  c #3A617A",
"_  c #464746",
"`  c #454944",
"'  c #454B4B",
"]  c #4B4C4B",
"[  c #524C48",
"{  c #4B504A",
"}  c #4D514D",
"|  c #53544C",
" . c #454A57",
".. c #514C56",
"X. c #4A5356",
"o. c #44525C",
"O. c #555755",
"+. c #545B5B",
"@. c #5C5E5B",
"#. c #605F5F",
"$. c #57635C",
"%. c #5C615D",
"&. c #64655D",
"*. c #766B57",
"=. c #485664",
"-. c #42556B",
";. c #4B526A",
":. c #435B6E",
">. c #4C5B6B",
",. c #555C66",
"<. c #435C72",
"1. c #485B75",
"2. c #435C7B",
"3. c #4D6267",
"4. c #5D6464",
"5. c #58656A",
"6. c #4A6477",
"7. c #44637C",
"8. c #4B637B",
"9. c #576877",
"0. c #5B737C",
"q. c #626463",
"w. c #646B64",
"e. c #6A6A64",
"r. c #63696A",
"t. c #6B6D6A",
"y. c #716E6B",
"u. c #6A726B",
"i. c #757769",
"p. c #73736D",
"a. c #636C76",
"s. c #697679",
"d. c #747574",
"f. c #787A77",
"g. c #7B7D7B",
"h. c #827E77",
"j. c #6F8279",
"k. c #7B827B",
"l. c #86826D",
"z. c #84847A",
"x. c #1E4F84",
"c. c #2C5886",
"v. c #355C85",
"b. c #3C5D81",
"n. c #3C6384",
"m. c #39678B",
"M. c #3C668A",
"N. c #2D6998",
"B. c #396B95",
"V. c #3C7398",
"C. c #3C79A3",
"Z. c #465D85",
"A. c #436484",
"S. c #486885",
"D. c #436B8C",
"F. c #4C6D8C",
"G. c #566B85",
"H. c #48718C",
"J. c #597488",
"K. c #426790",
"L. c #436D93",
"P. c #447295",
"I. c #4A7395",
"U. c #43759C",
"Y. c #49789C",
"T. c #557896",
"R. c #667885",
"E. c #6D7C84",
"W. c #747C84",
"Q. c #6D7792",
"!. c #447CA3",
"~. c #447CA7",
"^. c #4B7DA2",
"/. c #567AA2",
"(. c #3C88AF",
"). c #52849D",
"_. c #6C8288",
"`. c #74838B",
"'. c #788688",
"]. c #698697",
"[. c #788995",
"{. c #7A939B",
"}. c #4B83A5",
"|. c #4986A9",
" X c #5786A7",
".X c #538BAC",
"XX c #5492AD",
"oX c #4A8CB4",
"OX c #538CB2",
"+X c #4B96B6",
"@X c #5598B8",
"#X c #678AA4",
"$X c #6F91A9",
"%X c #7796A6",
"&X c #6697B7",
"*X c #57A1BD",
"=X c #66A3BD",
"-X c #78A2B5",
";X c #4C9BC4",
":X c #569DC2",
">X c #699DC0",
",X c #5AA6C4",
"<X c #56AFC9",
"1X c #65A9C6",
"2X c #67B3CB",
"3X c #76B2CA",
"4X c #69B8D3",
"5X c #76BCD4",
"6X c #68C3DB",
"7X c #77C6D9",
"8X c #7ACEE2",
"9X c #858B83",
"0X c #898B87",
"qX c #958B8D",
"wX c #89938B",
"eX c #94968A",
"rX c #838D94",
"tX c #8A9598",
"yX c #969A97",
"uX c #A39F96",
"iX c #98A399",
"pX c #A6A49A",
"aX c #B1AA9C",
"sX c #889AA4",
"dX c #8C96AD",
"fX c #959DA5",
"gX c #99A5A9",
"hX c #92AAB2",
"jX c #99ABB5",
"kX c #A3AAAA",
"lX c #A7B5AD",
"zX c #B5B0A8",
"xX c #A2ACB3",
"cX c #A8B6B6",
"vX c #B7BCB7",
"bX c #C4BDB8",
"nX c #AFC2B6",
"mX c #B8C2BA",
"MX c #C1C3BC",
"NX c #8CB4C8",
"BX c #A3B9C7",
"VX c #C2BBC4",
"CX c #8BC4D8",
"ZX c #BCC9C3",
"AX c #B3CCCD",
"SX c #8AD6E8",
"DX c #A7E7F0",
"FX c #C8D3CE",
"GX c #D9E4E7",
/* pixels */
"V H # $ f.p.{ e.4 3 X . 0Xt +.u.u._.'.k.].#X`.s.y.h.l.i.z.| eXf.+ { ,.% zX[ qX9X9Xz.q...d.0XuXaXgXt 0XeXyXw.f.bXO.7 h.d.@.q 2 [ ",
"g B 3 * f.p.` g.$ % % . uX6 6 7 e q * M } r % % w t t 7 &.. qXy.o { | 5 zX] O.%.&.e.W.q.M y.pXaXz.l.g.aXeXqXfXbX'.e.0X@.y.[ O.VX",
"j @.4 * k.e.t + | &.k.i.yX$ X X . . . # 9 : $ X . $ * * 2 # yXz.w eXkXO.zXy.% % : 5 5 0.J.| pXe % 2 5 7 0XMXFXMXuX0XyXuXz.#.y.q.",
"| &.3 % k.e.7 &.y.p.f.f.k.z.k.z.h.0Xz.0XwXqX0XwXqXwXeXeXyXyXyX] gXkXkXlXuXpXuXpXpXuXpXpXpXpXaXaXaXaXzXvXbXvXMXMXzXpXzXzXaXzXbXaX",
"t.&.4 5 z.u.t | $.e.f.z.9XwXwXwXeXeXwXwXwXyXyXyXyXyXiXgXlXlXlXlXgXlXlXcXlXnXnXnXvXlXcXlXcXvXvXZXFXmXFXZXZXZXZXZXmXmXnXlXeX@.0Xa.",
"t.@.&.@.0Xi.{ + 7 * + . + + # # + X @ + + + # - & $ # $ # # : : 2 : % : 3 4 3 3 : % 2 - > > 3 3 3 4 4 3 3 > - 2 q * 7 t 7 q.9X%.",
"q.| _ t eXf.` &.# uXeX* a.s.u.'.h.'.W.h.'.9X9Xz.9X0X0X0X9X0XwXtXwXfXyXfXyXgXyXkXxXcXlXlX$.kXvXvXmXvXvXmXmXZXZXFXZXGXGX3 FX> k.4.",
",.X t.y.0Xf.[ z.iX% eX+.j w h j j j B j B j A  .=. ...;.,.;.,.,.=.8.G.F.G.G.T.F.9.W.5.].G.Q.J.R.[.{.'.'.wX'.'.%X-XJ.GXMXGX3 z.4.",
"+.} * *.eXd.O.k.z.uXh 9 h w.B B  .g k A k  .-.oX=X1X).3XNXdX-.9.<.S.F.U./.^.XX X9.qXG.XX$X&XT.Q.].{.[.`.'.a.s.].{.sXQ.f.GX8 z.p.",
"+.} i.pXl.p.&.O.q r j 8 E.s 0 A ,.f j f k Z N S g j h p z F o.;.1.F.&X-X-X@XXX}.!.@X#X:XOX1X@X X].`.9 `.a._._.%X3.$X`.s.iX6 } e.",
"O.r p.u.l.i.4.i.. 0 } g < [. .x N o.A h 8 j x r.B N j z Z J I P ^ A.T.$X$X=XXX}.,X(. X<X<X,X,X+XT.`.O `.`.[.[.[._.BX%XsXFX_ j e.",
"X.w i.k.l.f.%.d.  M >.' N 8 s.w o.B B B x x F z P C F I R R -.R 1.J.J.Q.#X XOXOX+X+XoX4X*X<X<X*XD.W. .`._.'.[.[.{.:.{.%XvXFXf.xX",
"$.q | 0Xl.z.w.d.   .'.E.W.h g ,.9.F N A k z D F D D U P R 2.^ Z.F.].R.T. XXX}.|.+X+X<X6X4XSX<X*XS.`. .W._._._.tX].;.].{.mXFXz.f.",
"$ &.7 e.z.g.&.d.   .0 5.rXW.k 0 '.d D S I  .z D x x k x C D P -.>.-.n./ !.}.oX4X+X,X<X8X6X8X6X*Xn.`.0 [.s._.`.E.].,.{.%XmX. O.e.",
"4 * 4 &.z.l.w.d.  S s a S 0 G f D 6.=.R K K K P C b I I Y Y ^ ( Z.L.B.F.V.+X@XoX*X<X8XSX8X8X6X<XD.`.6 B m 3.5.5.].S {.].mX} 0X| ",
"t t t u.z.z.u.u.  N 0 1 s Z =.Z G S 7Xx.W ! ~ Y J C C Y Q Q ( ( P.B.!.D.|.oXoX:X,X8XSXDXSX8X+X+XH.`.g o.> 9 N 8 _.a.`.].mX} 0X&.",
"} ` ] 0XeXz.e.u.  A s g l g rXx o.V.oX2XV.v.T.Q ].K W &X^ n.T.n.m.m.P.) ^.}.5X@X=X8XDXDX8X8X=X*XI.'.f._.[.'.W._._.'.w.lXvX' '.i.",
"{ t | $.eXz.w.t.  o.s v d R A j o.~ C.V.B.Y.( ^ Y Y ^ ~ I.I.D.D.m.m./ S.L.}.oX,X*X6X7X7X7X<XAXXXP.s.5._.0.R.E.E.s.FXk.+.vXq 9Xt.",
"r t } * 9Xz.w.u.. ,.8 v C l F G I Q ( m.n.A.( ^ ( / n.n.Y.Y.D.I.M.n.P.n.I. X^.|.*X2X6X*X<X2X2X6XP.3 6 0 ' ' _ 0 j w ,.s.vXM t $ ",
"+ 4 2 6 9Xz.4.d.  >.z i J K I D b P L ~ ~ ~ ~ / V.m.m.P.Y.}. XI.P.P.I.Y.H.S././.).*XE XX*X*X*X+X( a.=.3.W.R.rXtXrXj.a.gXcX .[ 8 ",
"&.y.d.h.z.h.&.f.  ;.-.L W b b b Y Y ~ Q / / S.n.}.|.U.|.=XOX@X X}.P.m.T.6.8.S.T.).XX0.}..X}..XP.E >.E.=.s.Q.B tXrXs.a.gXcX] ..4 ",
"5 q e t z.y.%.f.  ;.l L v.B.Z.Z.Q ~ ~ ^ 2.1.2.M.B.}.}.XXCX-XXXXX#XV.M.S.S.1.-.2.) 7.M V.Y.).Y.I.<.a.a.S a.`.E.rXfXa.d.xXcX....9 ",
"+ X.5 e 9Xy.%.d.. ;.b c.C.~.C.N.Y.P.M.b.b.A.b.K.P.L.!.!.@X8X1X}.).Y.P.7.2.<.2.8.S.) 7.J.I.H.H.7.-.Q.3.N a.R.R.[.tXa.s.gXxX4.] 0 ",
"'.g.[ e 9Xf.@.s.. ;.c.c.C.~.;X1X|..XU.C.U.V.L.m.B.Y.Y.I.OXDXXXOXU.}.U.) ( A.( R 7.J.H.J.J.6.S.S.<.a.=.k R.0.R.[.fXc 0.fXxX,.+.p.",
"* q.` _ z.d.4.t.o =.( Y.;X<X6X:X@XoX+XoX2X@X!.B.L.Y.n.K.m.V.U.Y.L.P.&X( F.A.) 2.hX6.9.1.<.6.G.2.:.5.A m R.Z J.[.tX .=.fXxXk yXs.",
"pXr.t ] z.d.@.u.o =.Q m.C.;X;X;X|.+XOX;X5XCX3XXXm.v.b.A.I.V.L.U.Y.M.L.) D.n.2.^ M Q.-.;.<.>.8 1.6.>.g A 0.R.R.`.[.y G xXxX8 d.t.",
"r u.@.s.9Xd.@.u.o S Y W N.c.L.~.B.B.|.oX1XNXNXOXB.v.( 2.M.M.m.).I.v.M.T.M.A.S./ 2.G.-.<.^ D P 6.1.=.Z =.s.T.J.`.E.< =.kXjX9 =.yX",
"7 f.%.5.9Xd.4.u.o G L W c.x.Z.Z.! B.|.}.OX@X3XOXB.m./ Z.! ) ) A.L.D.M.M.S.K.) ( -.^ -.U 2.^ <.U G.9.J.>.0.S A 5.R.j J.lXcX$ # q ",
"# g.+.5.0Xf.%.u.@ o.d v Q b Q v.W c.(.}.,X4X5XoXV.P.V.V.) ) A.M.L./.M.A.D.D.D./ ^ A X.^ Y ( Q A.7.G.[.=.s.0.0.M 0.>.J.kXjX@ - w ",
". z.t.g.pX0X+.t.O o.Z.v b v Q b W c.C.OX1X2XSX4X(.|.+X+XV.m.n.n. XI.^.I. XY.I.n.S.:.R.z G.[.E ( S.2.G.9.6.9.9.j 5. .J.yXxX= - M ",
"* z.g.9XiXf.| t.@ o.l L b b b Q n.v.~.1X3X2X7X5X*X+X|.V.).A.M.M.M.U.OXDXNX XV.D.) :.a 9.z ].1 M.V.B.T.0X9.9.9.N 3.A 9.rXjX@ = M ",
"O.k.> $ eXf.} w.@ o.l K W b b 2.hXB.~. X X4X2X<X@X+X*X$XS.D.M.D.L.}..X&X=X.X.X|.D.M./ L Y d u I.}.!.T.n.G.0.9.G 9.>.S.9XxX= = _ ",
",.] 4 9 z.f.} w.@ S d L v.W I b b v./.Q.Q.U.oX,X.XOX5XOXK.~.K.K.L.|.OXI.|.|..X}.I./.U.L.P.m.M.Y.@X+X^.V.3.jXA 0.6.3.S.'.gX= @ ' ",
"y.0X- 4 z.u._ p.$ G c J Q l ;.c b Q Z.Q.Z.V.V..X^.OX X/.P./.&XI.Y.].^.D.!.}..XOXNXdX/.!.!.^.U.!.+XoX}.|.o.N x J.9.1.T.W.fX@ # ..",
"4.t.d.q z.%.w [ %.` f l Z.b c Q Q Z.Q -.I b.n.Y.P.!.C.rX~.~.U.U.P.I.Y.I.}.2X&XoX@X$X|.+XOXoX#X6.+X+XoX(.T H.7.J.9.>.G.s.fX> @ X.",
"` q.@.q k.&._ r.> S x l J b b b b b c I K Q n.! 7.Z.C.~.~.:XU.K.m.m. X^.|.&X@X,X1XOX1X:X,X@X%X9.^ ~ n.E V H.7.8.8.>.S.zXfX# $ ,.",
"r.d.e 4 h.@.t q.X o.d V b G.c ;.1.,.c c c W Q ~ 7.6.B.~.C.:XB.U.D.m.P.Y.1X:X1X1X2XCX5X<X4X*X].-X+X+X*X|.H.H.S.J.9.8.8.W.fXyX4 iX",
",.W.q.$ g.q.] w.O o.d l b b ;.b Q.VXa.l I -.F U -.2.v.B.B.B././.K.Y.}.>X4X2X,X1X5XCXNX5X1X=X1X,X,X*X+XV.F.H.S.J.6.9.7.s.tX< mXGX",
"& 4 h 4 f.e.} 5.o  .l i b K b.Q G.;...l c  .D Q ;.1.v.C.~.C.~.P.L..X|.1X7X2X1X1XNXGXCX5XCX<X1X;X<X,X+X(.I.L.A.F.6.1.S.W.sXk iXuX",
"] [ | t p.u.| 5.o  .l v v.c.b b n c c f c A D c c 8.W ;XSXB.B.N.T.|.|.@X@X1X:X2X7XCXBX3X2X1X,X<X6X6X*XC.I.I.H.6.8.G.S._.sXs.j.f.",
"] [ | MXp.t.O.4.o F u F.i K d b c f p n n c c c z 9.K N.C.B.m.V. X!.^.&XXX@X1X8X5X5X5X5X5X>X:X:X;X+XoXC.I.A.A.G.A.S.8.R.tX= 3 3 ",
"] | O.O.p.t.O.4.  N u i b d d >.f f n f b f z z D =.l v.K ! c.W %X!.^./.oX@X:X:X3X7XSX5X>X>X>X~.+XoX|.B.L.F.F.J.S.8.2.0.sX2 3 9 ",
"] ] | 7 p.q.O.r.  Z u v y y < k p p f f d x c z F ,.l W K K K W $XL.v.I.!.}.oXOX2X2XSXAX3XNXdXdXOX|.C., U U 1.a.6.2.6.s.rX- 3 4 ",
"] ] . t u.%.O.5.  g y i y 1 ; 8 < f #.x l c a z c ,.l b b I K K dXv.B.K.~.>XOXOX+X:XCX3X3XdXdXyX/.}.L.1 9.T G.a.6.<.7.0.rX- 3 8 ",
"_ ]   ] t.%.O.r.  m 1 i p , 1 y p s s z l z l D P d.u b l D L K dXv.K.' I.#X X|.OX+X.X*X=X%X#XQ.G.G.<.y 9.;.9.5.6.E E 0.[.3 4.&.",
"' ] X ] p.%.O.r.o k u i p ; < 8 s p g d d C V 7.Z =.D l b D L W s.^ / ( m.~.|.=XOX~.}.|..X#XT.F.D.A.b.< F.J.S.' :.6.6.9.rX= q ,.",
"] { . $ u.@.O.5.o h y v 1 , < s f.f a s a d Y ) J ,.Z l i x K I k K b.~ N.C.C.oX~.I ;X(.~.T.Z.b.A.n./ 8 <.T.7.' :.6.7.9.'.> q o.",
"] } 7 4 u.%.O.w.  h y  Xy 1 = 8 j W.Z a a u u I c a.p b l g b 1 >.Q Z./ m.C.|.!.U.Z V.~.V.G./ 2.2.1.6.Z ,.0.9.B <.E 7.9.'.& M B ",
"t { i.wXe.O.| r.  s 1 0 ; 1 < B y 0 rXg 8 F a a s  .x f d u b d z W ^ b.B.V.B.P.M.B.N.m.B.=.:.R :.:.:.<.< 8 5.=.<.E J.6.'.> 0 w ",
"r _ w ,.q.[ } r.  h O cX; < > F.V u g 5.p f 1 f f f f f d c b J Q Q T.#XB.m.! b.) ^ ^ R <.,.=.T -.:.:.:.a N R.:.:.<. .=.rX3 X.X.",
"r _ w f.&.[ ` &.  g = 8 > - V T ( g l J.h p a a f j  .j D I V I K R I.^.!.v./ ! ^ R R -.0.T T T :.E :.<.N =.3.T T T :.:.[.8 X.O.",
"r ` 7 O.@.&.t &.  M = s = U 6.d 8 d A O d.5.,.>.;.,.qX..Z z I J 7./ B.B.v.( / ~ Y R T S T U F G =.T :.g a S -.=.T T -.:.[.8 ' ' ",
"r _ q } @.e.e | . 0 O < 3.R 6.> ; R.,.0.0 1 1 8 p p f l f f c l J L n.v.m.n.~ L E <.R S B F D F T ) 6.g o.A F =.T T T R '.g.wXyX",
"r _ w } &.e e @.. s 0 `.F x # s W.A G 4.,.5.=.N A ;.,.=.,.,.5.5.s.N K ! ! Y P C P P o.T F 8 F F R ) R D d 0 G Z F F T E E.@.q.r.",
"' w.t.w.&.t e #.o 0 1 < f 8 6._ a.j 8 < - 1 ; < ; 1 i l l z 3.z C l v W W L Q R D x  .>.T G %.0 R T E T g g =.F F D T R W.>.,.O.",
"X & 5.8 | t 7 i.f.8 - =.O k ; - 8 1 ; < n 1 ; = 1 < 1 u y 1 ` u S.D v b J I D I >. .F A G G Z F E T T T p = h g E I T ^ ,.> qXW.",
"M > ,.j [ ` 5 u.#.yX8 @ = 1 8 k < , a y b.D./.c.b H K.K.n.) J u V D l l x P U ;.D L Y L P z m  .T g G -.Z > N u L V U '.[.O 5.m ",
"' X.+.M { t 7 y.e.+ xX- 8 O - 8 = > < < 8 1 1 0 y 1 y y y i y u d C G k l l x D z l V J D C h B G 1 =.U =.= S I V T k._.{.O 9 { ",
"8 0 g _ | ] 6 &.*.R._.,.X.,.,.@.$.3.$.5.9.3.3.3.9.1.3.0.R.s.9.r.5.4.5.r.4.5.5.5.5.5.5.5.5.4.5.a.s.s.5.a.s.a.5.5.3.9X'.wX{.@ r 9 ",
"S E d 4.| t * * q.r.w.w.X.8.R.$X%X&X#XJ.R.s.J.s.a.9.g E.E.R.s.s.'.`.E.`.`.`._.`.{.%X%X%X{.%X{.'.`.[.{.[.`._._.].%XyXwXlXwX9 +.8 ",
").H.! +.+.r * $ * 7 t _ 3 5.d.j.g._.s.'.j._._.j.'.'.u.`.tXtXfXsXgXtXsXtXgXjXxXjXjXjXxXBXBXcXAXkXgXgXgXjXcXgXgXjXhXBX$.` 6 M 2 3 ",
"}.V.! $.O.q 3 $ $ 2 t ] #.3 X + + X o X # { f.s.2 `.> O 7 & w.3 { k.9 O O 8 3   + + _ y.O.e.$.q @.{ 4 O.w * 3 _ @.w.$.m S 3.M w ",
"S V E { O.] * 9 +.X % [ r.; # 9 8 - < ; 2 O.p.j.g.g.O 3 X.3.'.0 5.jXS O < '  .o j - +.g.@.f.f.2 ' [ 9 w.3 3 O } ` 5.6 $.>._ ` X.",
"O ) v 6 @.| * 9 * r 4 n r.- - 9 q q ] w q %.u.a.u.r.& 9 S 4 M w M '.M O o  .M O r.q M w ,.q.k.O O > & # @ 9 ' M 3 u. .h ,.' ] r."
};
