/* XPM */
static char *result[] = {
/* columns rows colors chars-per-pixel */
"64 64 256 2 ",
"   c #0A0608",
".  c #0C0A0C",
"X  c #120A0B",
"o  c #15130E",
"O  c #0D0D13",
"+  c #090E18",
"@  c #120E13",
"#  c #0D1418",
"$  c #141314",
"%  c #181817",
"&  c #13141B",
"*  c #1C161B",
"=  c #1A191A",
"-  c #26151B",
";  c #231C1C",
":  c #30101C",
">  c #1E201D",
",  c #26231E",
"<  c #151B22",
"1  c #1C1C22",
"2  c #191927",
"3  c #151A33",
"4  c #2B0E23",
"5  c #231D22",
"6  c #2B1C23",
"7  c #291628",
"8  c #361928",
"9  c #2A1B34",
"0  c #381D34",
"q  c #1B2327",
"w  c #1C2534",
"e  c #242323",
"r  c #2B2424",
"t  c #2B2925",
"y  c #25262B",
"u  c #2C2B2B",
"i  c #36272A",
"p  c #332C2C",
"a  c #2A3128",
"s  c #33322E",
"d  c #262836",
"f  c #2C2B33",
"g  c #352C32",
"h  c #3A2937",
"j  c #2C3438",
"k  c #343333",
"l  c #3A3433",
"z  c #3C323C",
"x  c #363839",
"c  c #3C3B3B",
"v  c #47192A",
"b  c #511729",
"n  c #57192C",
"m  c #461D33",
"M  c #571D36",
"N  c #45272B",
"B  c #4C2B2C",
"V  c #442235",
"C  c #472938",
"Z  c #572638",
"A  c #453536",
"S  c #44333C",
"D  c #433D3C",
"F  c #56353C",
"G  c #66273B",
"H  c #712B3B",
"J  c #2F4039",
"K  c #39413D",
"L  c #42423E",
"P  c #4A463A",
"I  c #5A413E",
"U  c #1B2646",
"Y  c #1B3153",
"T  c #282C47",
"R  c #3A2A46",
"E  c #342D4B",
"W  c #293346",
"Q  c #2B334D",
"!  c #373745",
"~  c #3B3C43",
"^  c #34334C",
"/  c #3B344D",
"(  c #343B4C",
")  c #282C55",
"_  c #362D54",
"`  c #2C3354",
"'  c #2A3759",
"]  c #343453",
"[  c #3B3354",
"{  c #343B53",
"}  c #3B3D54",
"|  c #38365B",
" . c #343B5B",
".. c #1C3664",
"X. c #2C3863",
"o. c #333B63",
"O. c #393864",
"+. c #383369",
"@. c #462946",
"#. c #4B2C43",
"$. c #572C46",
"%. c #4D3443",
"&. c #443C43",
"*. c #483948",
"=. c #573746",
"-. c #533B43",
";. c #482C53",
":. c #582F53",
">. c #473757",
",. c #43355B",
"<. c #4A345A",
"1. c #543153",
"2. c #583758",
"3. c #672B46",
"4. c #772945",
"5. c #683646",
"6. c #763449",
"7. c #6A2C51",
"8. c #663756",
"9. c #773757",
"0. c #483B65",
"q. c #563B65",
"w. c #483C72",
"e. c #663C65",
"r. c #773C68",
"t. c #753F70",
"y. c #3C4443",
"u. c #384448",
"i. c #394458",
"p. c #3B445B",
"a. c #314859",
"s. c #0B5978",
"d. c #2D4D6F",
"f. c #384668",
"g. c #2B4575",
"h. c #384674",
"j. c #444443",
"k. c #4A4444",
"l. c #484A47",
"z. c #44444B",
"x. c #4A444C",
"c. c #4C4B4B",
"v. c #55484B",
"b. c #4C514C",
"n. c #55544D",
"m. c #474755",
"M. c #4D4D53",
"N. c #584955",
"B. c #4A5457",
"V. c #4B535B",
"C. c #535354",
"Z. c #585758",
"A. c #5B5C5B",
"S. c #674B4B",
"D. c #674858",
"F. c #784659",
"G. c #66595A",
"H. c #5C6256",
"J. c #67635C",
"K. c #72665E",
"L. c #474567",
"P. c #564569",
"I. c #4A5664",
"U. c #545B63",
"Y. c #595A65",
"T. c #494876",
"R. c #584774",
"E. c #485774",
"W. c #58567B",
"Q. c #684468",
"!. c #764768",
"~. c #675763",
"^. c #644B79",
"/. c #774976",
"(. c #6E5671",
"). c #765C76",
"_. c #5C6263",
"`. c #58646B",
"'. c #566F76",
"]. c #5B6974",
"[. c #656869",
"{. c #776669",
"}. c #63716F",
"|. c #72726C",
" X c #676A76",
".X c #776777",
"XX c #687578",
"oX c #777978",
"OX c #843653",
"+X c #8C3850",
"@X c #A8365D",
"#X c #923D6A",
"$X c #8B4A5B",
"%X c #AC4A5D",
"&X c #884A69",
"*X c #954D6F",
"=X c #895669",
"-X c #874875",
";X c #855679",
":X c #965878",
">X c #A44F6C",
",X c #8D6E77",
"<X c #A76B7A",
"1X c #77817A",
"2X c #8E8379",
"3X c #34548B",
"4X c #1D7D9C",
"5X c #30719A",
"6X c #2667A8",
"7X c #4B5186",
"8X c #56598A",
"9X c #695886",
"0X c #6B568E",
"qX c #785888",
"wX c #4C6992",
"eX c #586698",
"rX c #6A7886",
"tX c #767D82",
"yX c #726995",
"uX c #4F71AE",
"iX c #6C77A6",
"pX c #2F79D9",
"aX c #935387",
"sX c #A55A86",
"dX c #A85D92",
"fX c #8F6C8A",
"gX c #AC708D",
"hX c #B9669B",
"jX c #B071A3",
"kX c #C97193",
"lX c #D173A8",
"zX c #3484AE",
"xX c #6D8189",
"cX c #798385",
"vX c #5E8BAA",
"bX c #248AC5",
"nX c #3BABDB",
"mX c #5B8ACD",
"MX c #51CCEF",
"NX c #848786",
"BX c #8A8E8F",
"VX c #868B95",
"CX c #899494",
"ZX c #939796",
"AX c #B58693",
"SX c #97A19B",
"DX c #929AAC",
"FX c #AF91B7",
"GX c #A1AAA4",
"HX c #A8ADB3",
"JX c #D28BAC",
"KX c #E79EB6",
"LX c #899BC6",
"PX c #E3ACC7",
"IX c #9AD9EC",
"UX c #E1DAE0",
/* pixels */
"a.u.H.B.l.t J.N CX1XVXj d w 3 3 < 3 U T W W u.a.I.B.< w q w 3 w w w q w w w j j w j ( u.i.Z.XXtXXX[._._._._.B.'.VXcXu.UXa J j K ",
"wXd.B.H.K , a q r e = & # < q & > q + $ O $ O q q q j q = = # & $ O $ # 2 q < q & 2 % = > % > & 9 w q < # # # q j u.1Xj w _.a J ",
"zXd.`.H.j., C.c.b.U.c.j.XXoX1XcX1X1XxXXX'.}.1Xy xXH._.J.}.}.}._.B.V.V.B.B._.`._.oX|.oXcX2X|.Z.tX1XoXoXoX[._.K.1X}.}.CXCX}.z.j x ",
"E.d.XXb.l., j s P j.b.Y.w CXCXcXZXBX1Xd A.1XXXq tX& & j J _.j l.CXJ # < j a O q $ k.[.Z.}.|.j M.c.u A.k s q b.K }.H.Z.`.i.c.l.M.",
"a.d.x B.b., x a = i k.[.q . $ & = y c u A.[.}.|.1XZ.l.B._.}.y.Z.HX`.u.u.oXcXw  Xj }.oX XXX2X= NXBXBXCXNXCXGXSXCX_.= u.U.l.c.Z.c ",
"K u.$ n.n., k j t u *. Xw j [.NXNXoXoXc._.~.}.}.].y x b.W u.u.j cXu.& O `.V.+ V.! V.d Z.I.XX& 2 f a > > j }.B.q }.B.u.B.V.c.[.j.",
"a.K o H.b., b.c k p p [.U.U.U.`._._.}.`.`.`.}.M.].m.oXxX( CXI.B.SX'.j w DXCX'.cXXX Xu. XVXXX& j.B.B.B.m.}.cX1XcXB.B.I.p.I.x.! k ",
"1X1X2XH.P , K ZX2X1XoX. . . O * 1 d ! j d x y d f q q j j y.u.B.B.u.d q q q w ! K [._.k.&.x.~ DXoXtX].}.cX1XcX'.HXCXGXUX. A.V.M.",
"L P b.n.P , 1X|.1XG.c & O O     .   O . . # # < 1 < 1 1 % * < * & # # = # < # . + + # < + + <  XrX'.u.= w q & Y.B.SXw ZX& |.# I.",
"j.L K Z.L , oXoXP 2X9 d i.< w U Y ..X.g.a.Q W ^ { ( j ( ! ( {  .i.L.BX' X.X.d.d.' a.f.p.oXB.p.rXrX`.V.& ( u.e Y.> j ZXZX. I.`.U.",
"k.l.L A.K t |.2X2X3 u.! R  X} U U Y ..zXvXHXDX.XfX( ! { ^ L.rXE.d.{ ` ' a.' ..a.a.a.f.i.2Xi. .`.E.q y j y a q 1 _.V.CXCX# i.I.V.",
"j.l.b.n.P t A.. j w d 8.@.9 VXd T ' ..g.3Xd.3X7XwXp.p.' ( ' a.a.a.Q Q  .' ' ' W i.p.f.B.f.i.i.`.`.j # ! ].z.'._.j V.V.oX< T f u.",
"L k.o n.k.a Z.. T R $.).~.1.*..X.XP.W.(.(..X.X,X.X). .] E ' ' a.Q ' ` ` Q ' ` ( d j xXf.a.p.i.U.V.x w u._.M.4XwX~ U._.rX1 a.q k ",
"D e % n.c.k Z.. W D.=.#.Q.fX-.7 5 k z.I.I.h.f.a.f.m. .^ / ' E.( @ 1 & 1 x T ` { W W xXi.i.i.i.`.B.y.[. X X XXXtXx.U.I.XXM.x b.Z.",
"K t SXn.l.s Z.. W w Q.C D.D.*.&.C k.~.Y.).f.W.W. XY.i.] ! o.T.rXVXVXDXHXUXQ Q W ~ f rXi.u.p.i._.M.&.Y.Y.V.].'.].j.I.Y. X[.[.oXoX",
"y.K s n.l.k Z.  i.U ) 2.@.).oX,XoXM.D.>.L.h.3X3XX.] m.i.} X.AX*.f d f h fXT ^ K.^ W h.i.i.i.i.U.Y.c Z.J.J.K.J.`.c Z.Y.[.. B.H.Z.",
"c L p C.k.k C.. a.Y U Y Q.D.oXVX;X,XgXp.f.3X6X3Xg.{  .] N.' ( 1 @ $ 1 1 e W T T ( W Y.} i.{ ( U.I.M._. X[.[.S.M.x Z.Y.[.. 1 * e ",
"c j.p n.L k l.. f.o.) ) ` D.D.1.N.fXO.| X.3X6Xg.d.p.f.m.>. .(.>.p.} Q ] ^ ^ Q { / T ( ( i.' ( V.Z.Y.[.tXxXxXXX`.U.z.M.[.. |.C.[.",
"L J.K b.P x k.  f.Y d.) ) ) Y.fX(.T.o.f.X.3X..g.d.P.f.u.*.o.P.]  .{  .Q ( Q W T U ( ! / } { (  XV.U.E.u.Z.j _.I.V.x.Z.Y.$ |.|.[.",
"% e k b.j.x k.  f.wX(.) ) ) | ] ] W.f.h.+.X.g.h.bXP.E.P.*.X. .I.p.o.Y.o.' T T T T p. XL.{ { } Y.U.Y.Y.! U.m.V.V.Z.M.{.Y.* = r = ",
"a s c c.D c k.. p._ 0.+...+.) +.O.f.o.f.h.f.O.O.6Xm. .} ! ) ' X.o.o.(.' ) T ` W T z.W T ^ W j = = * $ = - * 5 * = = - Y.= . $ e ",
"c c L c.c D v.. L.T T X.) ..+.+.T.h.O.h.T.O.,.,.| R P.i.h ) X.X.' ' ' f.Q Q Q T T T Q / T ( ^ / ! d S m.*.} C.h x.M.`.U.; 5 e e ",
"x c j.k.c ~ k.. | _ ) ) ) +.w.6XuXwXh.L.| >._ R *.R L.] R ) X.X.X.' ] ) T ) ] T m.{ } L.L.L.[ } / [ &.m.L.z.C.z z.M.].A.; u 5 k.",
"k c P k.k ~ k.. +._ +.) +.+.w.3XuX7XT.h.| R R @.z ;XD.,.R ) ' +.X.X. .` g.3X` T ` / P.;X:XQ.>./ / ! z z.PXz.N.&.x.C.Y.G.e C.l.A.",
"% t u j.k ~ k.. m.;./.0.w.w.0X0XqX0X9X+.f.[ E E _ 0.0.O.*.O.O.| h.6XX.` X.X.) ) ] Q N.JXPX!.>.! / [ z.&.N.C.G.D G.G.N.G.; e y e ",
"oX, . j.f ~ x.. >.e.e.e./.t.-XdXhXhXfX^.,.>._ ;.0.O.0.P.9.q.| X.o.f.o.` ] ] ` X.] ] 0./.sXN.*.R / [ &.f m.M.N.&.D v.P G.c y , - ",
"M.k D z.f ~ x.@ <.t.aXaXaXaXdXlXlXlXhXaXQ.e.;.*X1.<.:XkXPX!.| | O.' | ] ] [ ^ E ^ ^ } <.0.>./ ! ^ / *.y m.x.k.*.,X,X,XZ.k c.n.c.",
"c.z T V.( m.N.$ D.hXhXkXhXhXhXhXdXdXhX/.q.1.;.1.<.;.<.e.aXe.fXo.o. .| p.] ^ >.R >./ ^ _ / ! >.E ! @.R h x.m.k.z.! } c.Z.x ; , e ",
"C.x &.7X3X8XaX$ 2.-XsXhXhXlXlXlXjXaXaXaXe.<.<.;.,.[ 0.q.2.<.,.[ [ |  .L.X._ @./ UXyXE E ^ ] / ( } h ~ 5 x.m.v.*.&.u.D.Z.% 5 o X ",
"c.j.3XpXpXeXhX@.2.t.#XaXKXlXhXaXqXW.qXdXq.q.q.P.,.<.Q.&XQ.<.L.R.[ O.O.f._ E _ R N.^ E / ^ / >.,X-..XN.1 m.N.D.~ ! >.N.N.o v.= - ",
"v.k.5XMXIX5X0.h *.aXt.t.aXaX#Xw.7Xw.qXe.^.).R.^.w.<.!.e.8.<.<.,.| 0.T.+.E E E E *.@./ _ ] [ >.*.N.R -.7 *.N.D.! *.m.v.N.* k.; * ",
"C.y.5XnXMX5Xf.d %.qXaXt.q.;.;.U +.,.1.8.!.aXQ.<.1.1.@.;.;.2.<.| ,.0.PXq.0._ Y.[ } 8.! _ ! *.BXx.x.z %.9 ).N.P h g %.v.N.% D 5 - ",
"Z.y.3XwXbXd.h d R q.w.+._ +.0.w.+.q.#X*XFXDXiXiXeXR.P.L.q.,.>.,.,.P.<.,.| L./ / >.*.R / x.z.>.*.R %.S #.N.v.N i A *.x.D.% p 5 * ",
"G.M.I.c.3Xi.Z 1 R ) _ _ ) ) _ w.0.w.#XaXFXIXDXmXuX8XR.T.q.P.,.,.q.>.>.,.,.>./ 1.2.PX2.R N.x.*.C.x.%.h S N.2.v.g &.*.*.N.o k e = ",
"~.rXU.j.M.u.A & E T ) ) _ _ w.+.;.<./.yXLXLXvXuXuX0X8X/.R./.0.<.<.>.,.>.,.,.>.!.2.:.R R h BX@.Q.h %.C *.).v.N.-.G.*.x.S.$ g g - ",
"n.O e D x c V @ R E _ ) 0.w.,._ ;.<.7XeXDXvXuXuXuXR.fX0.R.q.q.<.0.,.,.>.q.0.N.F.@.R R R &.(.S G.z %.C 1.{.2.G.A h *.&.v.- j.z ; ",
"XXV.% D k k C $ ! 9 #.9 @.q.R <.;.w.w.0XeXeXeXeX8XR.0.L.w.q.).q.L.L.0.<.0.q.<.1.;.| R R {.D.N.1.C @.#.%..X1.,XA =.&.%.D.p &.S.n.",
"D.l.q D k k l X z 2 @.0 9 9 0 e._ w.w.w.7X7X8XeXeXyX8XT.W.<.0.0.q.q.L.R.P.P.2.%.,.0._ R h @.C %.#.*.$.=..X2.fX*.S v.D.G.r ,XN {.",
"x M.= L p k A X h 2 0 9 7 9 9 X.+.3XT.<.0.T.uXMXuXW.P.D.#.0.q.9XR.q.q.9Xq.q.e.;.0.6X,.@.R R 0 C #.$.=.5.;XD.,Xx.%.%.N.N.e N - A ",
"w z.= c u p A X ~ 5 0 4 7 h 9 T ..3Xw.q.;.T.3XbXuXeX;.=.x.w.e.R.0X/.R.aXQ./.:.;.,.[ @.@.@.#.@.@.#.$.$.5.(.Q.kXx.#.&.D.v.r A i D ",
"y.y * x t s l X z 7 h 9 - 7 8 9 U _ $X:.;._ 0.+.8X0X8X8X7X9X^.0XfXjXqXqX/.#X8.2.;.;.#.;.1.#.#.$.#.$.$.5.;X=XkX-.S S N.v.6 r r A ",
"L l u c t p l X z 5 $.9 4 ; 4 9 9 R 0 ;.0 @._ 0.q.w.8X7XP.R.7XmXLXFX-Xr./.r.7.1.1.*.=.2.;.2.2.$.$.3.3.6./.fXkX=.%.C =.-.r ; 6 i ",
"e , , D t p l X h 8 %Xv 8 4 : 2 7 9 8.0 m 0 @.q.<.e.Q.q.q.^.9XqX9XdXsX*X-X9.8.:.2.#.2.8.2.2.8.$.:.3.5.6.=XAXJXF S S =.k.r - i A ",
"u u k.c p p l   l i H 8 i 4 : 7 4 7 4 8 m @.@.@.:.q.e.t.R.9X^.^.fXlXJXdX*X:Xr.7.7.7.2.1.2.8.8.8.8.3.G $X*XjXJX=.V %.-.F i 5 i k.",
"s P L D k u h   N C n 8 0 4 m 7 7 7 8 4 m 7.@.@.;.:.:.sX^.R.9X^.0XdXsX>XdX7.7.:.:.8.1.$.8.9.9.$.8.9.6.+X:XgXKXS.h F -.F 6 - r A ",
"s t l c i u N   ; S.H 8 8 - m 0 0 4 4 8 9 m @.@.;.;.e.2.q.q.R.^.qX-Xr.9.r.m :.$.$.Q.Q.e.r.>X#X8.3.6.+X+X>XgXJXF N v i -.6 ; r ; ",
"k p s l l t s   , v +X8 8 7 F.v !.7 7 4 8 0 m @.:.q.q./.*Xt.^.^.iXt.9.7.$.@.@.@.$.8.e.#X#XOX4.C F F =.S.5.S.S.5.5.=.=XD % , - - ",
"l s c l l t i X i : F.8 8 $XZ Z b fX9 4 7 0 m m 7.7.*XlX#X/.2.q.e.e.8.m m m m m #X$.7.OX@X*X7.C F v.-.I I 5.5.5.F F F -.o , N B ",
"l s L l i , N X i ; : 8 H n 6.: $.M gX7 C 3.$.8.9.&XkXlX*X!.t.1.2.$.C Z m 0 8 M M 3.M 4.KX+X9.B -.F.=X<X2X<X$XS.5.F F -.X h A N ",
"p i c l p t A X i 8 ; 6.Z =X=XA 8 3.v 6 0 8 m C Z 3.OX+X9.8.2.8.$.$.C $.V m 0 8 m M M 4.OX4.9.Z -.N F F Z G B H F I v.-.X |.|.1X",
"l i D s p t B X i - =XG F.>XF F.6.Z n 9.6.Z <XF.!.9.!.:XgX-XsXsXfX&X9.7.M m b b M M M 4.G G 4.V F n $X4.5.5.H H F 5.F A I n.v.I ",
"p r Z.l , , p   p %X6.Z =XZ 8 $X+X$Xv 8 8 8 8 0 C m #.Z #.8.6.5.G $.#.Z m M M G M M G 3.M 3.H S I B +XH H S.H H F 5.F A o X X X ",
"r r t s r t i   5 H V 6.V b $Xn H +X$XS.Z b 8.&X=X!.&X=X:XgXkXgXgXgXgX<X&XH G OXOXG 4.7.Z 6.6.S F F H H H 6.H F.Z F B A A oXoX[.",
"i o ; p u e i   6 i $XH b +Xv OXG - : : 4 8 N m n $.C m m 2.3.3.4.6.4.H G G G @X@XOX7.4.6.6.6.Z -.A ,XAXJXAXAXgXN F i K r s X @ ",
", o a s p , n.v.* 9 B b +Xv $X: : - : v v 8 v M M v b n M M G 3.6.9.#XOXH H H @XkX+X4.9.5.4.Z C D &.S C A Z B C 2XH - =X= ; * ; ",
": o x u p , P D v.- 8 - b G : o - Z $X:X$X6.9.6.4.$.5.=X,X,X=XAX:X*XUX*X>X$X=X<XkX<XgX<X4.UXZ C S z z S A F F B F F K.S.= r ; p ",
"- a t p a = L P % GX; - - 8 - * - = - - * 5 * 6 7 8 i V 0 V m h B $.7.G Z Z G G 3.5.3.G F F Z i r 6 ; - 8 B V N v.|.G.S.X u , , ",
"; , = p t = n.% W { o ; * - ; ; r , r e 5 u y p h z z x g g g g i i 8 6 i i h C N p i i i i i p p p p u l p l x K.n.v.i   , ; r ",
"; l s s r o X , a , a a a a s l k J k k x k K u.u.u.u.u.u.~ u.y.u.K K K K J y.K u.K K c K l.y.K D c L K L j.j.l.j.C.y.s % p , i ",
", l s s , o s B s x x K c x y.c.l.u.y.~ u.m.B.m.b.m.u.m.z.C.C.Z.N.B.M.j.u.K y.b.M.z.l.C.Z.C.C.k.z.c.c.C.Z.C.A.J.G.n.k.j.l X o o ",
". s e a t % C.c.&.x.z.N.XX`.cX1XoXtXcXZXtXoXtXtXcXcXXXxXVX_.k = q e < C.k.x x y.C.c.c.k l.L H.}.oX1X|.j t $ t c P L b.b.H.n.k = ",
"3 a % u > % . k.c p s x k e a t e . O 4XU o k.      y s = c e j $ . . C.= y 1 e e % e C.b.n.H.J.J.C.l.c = = s k.L K $ % o r e > ",
"3 u o r % o O o   u $ D j.&.M.Z.A.x k s.Y   ~ e L j.y ~ e A u & k L . p o r c P y e % k.K c.L l l j.l.P e e K k.L n.% % . j x c ",
"# % % % % = % = % % = = & % * * = = = % % $ = = = = % = = = = % % = % ; % % = % % % % % % % % = = = % > = % % % % % = % % = % = "
};
